<?xml version="1.0" standalone="no"?>
<!DOCTYPE svg PUBLIC "-//W3C//DTD SVG 20010904//EN"
 "http://www.w3.org/TR/2001/REC-SVG-20010904/DTD/svg10.dtd">
<svg version="1.0" xmlns="http://www.w3.org/2000/svg"
 width="960.000000pt" height="539.000000pt" viewBox="0 0 960.000000 539.000000"
 preserveAspectRatio="xMidYMid meet">

<g transform="translate(0.000000,539.000000) scale(0.100000,-0.100000)"
fill="#000000" stroke="none">
<path d="M5870 5273 c-223 -228 -409 -493 -567 -807 -94 -187 -121 -276 -78
-260 10 4 15 0 15 -13 0 -10 5 -24 12 -31 9 -9 9 -15 0 -24 -18 -18 -15 -27
14 -38 18 -7 30 -7 39 0 6 5 14 8 17 5 5 -5 19 20 34 60 8 23 8 23 0 50 -5 18
-1 20 39 20 50 -1 89 20 66 34 -8 5 -12 18 -8 30 3 12 1 19 -4 15 -17 -10 -9
10 13 33 12 13 16 23 10 23 -7 0 -12 -4 -12 -10 0 -5 -8 -10 -17 -10 -28 0 37
60 66 61 l26 1 -27 11 c-37 14 -35 23 5 31 23 5 28 9 18 15 -8 5 -11 16 -7 26
5 15 4 16 -9 5 -9 -7 -18 -10 -21 -7 -11 11 6 25 36 32 17 4 30 11 30 16 0 6
-9 7 -20 4 -11 -3 -20 -2 -20 3 0 13 25 33 33 26 3 -3 16 3 28 15 13 12 30 21
38 21 13 0 14 2 2 9 -8 5 -11 16 -8 25 4 10 1 16 -7 16 -8 0 -16 7 -20 15 -4
11 5 16 35 21 33 6 40 10 36 25 -3 11 -2 19 3 19 14 0 30 -27 25 -42 -4 -10 0
-14 14 -13 11 1 23 4 27 7 3 4 11 5 18 2 7 -3 27 2 45 9 27 12 30 15 15 21 -9
4 -20 2 -24 -4 -7 -12 -40 -3 -40 11 0 5 7 9 15 9 8 0 15 8 15 18 0 13 8 17
33 17 17 0 37 -4 43 -7 6 -4 14 -5 18 -1 10 10 7 43 -4 43 -5 0 -10 5 -10 10
0 6 10 10 23 10 22 1 22 1 2 15 -16 13 -20 13 -27 1 -5 -8 -16 -12 -28 -9 -14
4 -20 0 -20 -11 0 -9 5 -16 10 -16 6 0 10 -5 10 -11 0 -7 -10 -9 -24 -5 -14 3
-28 2 -31 -4 -12 -20 -35 -10 -35 15 0 14 5 25 11 25 5 0 7 -4 4 -10 -3 -5 -2
-10 4 -10 5 0 11 10 13 23 2 12 9 21 17 19 9 -2 12 4 8 18 -3 11 -1 20 4 20 5
0 9 -7 9 -15 0 -8 5 -15 10 -15 6 0 10 9 10 20 0 11 6 19 13 18 7 -2 12 9 13
27 2 48 4 51 18 32 8 -10 13 -26 11 -35 -1 -9 0 -11 2 -4 6 15 20 16 25 0 2
-6 10 -8 16 -4 17 10 5 26 -19 26 -10 0 -19 3 -19 6 0 12 43 44 59 44 14 1 13
2 -2 11 -25 15 -11 32 15 18 16 -8 23 -8 30 2 7 10 8 8 5 -9 -6 -26 27 -52 37
-29 4 6 4 2 2 -10 -5 -26 11 -31 20 -8 4 8 13 15 22 15 12 0 13 3 4 12 -29 29
8 40 44 13 10 -8 25 -15 32 -15 24 0 11 19 -28 41 -22 13 -40 26 -40 30 0 20
24 18 63 -3 47 -26 59 -62 36 -106 -12 -21 -11 -26 3 -36 11 -8 14 -17 7 -27
-5 -8 -9 -21 -9 -29 0 -13 1 -13 10 0 7 11 15 12 37 4 15 -5 28 -15 28 -21 0
-6 3 -15 8 -19 4 -4 7 0 7 8 0 9 7 19 16 22 11 4 19 -4 29 -28 8 -19 19 -37
25 -41 15 -9 12 -25 -4 -25 -8 0 -18 9 -21 20 -3 11 -11 20 -16 20 -13 0 -11
-18 4 -23 6 -2 9 -8 5 -12 -4 -4 -14 -2 -23 5 -23 19 -30 4 -11 -25 10 -16 23
-24 32 -21 17 6 18 -3 4 -39 -9 -23 -8 -26 5 -21 8 3 15 1 15 -4 0 -6 12 -10
26 -10 38 0 27 -32 -14 -41 -44 -9 -45 -11 -44 -66 0 -27 -4 -53 -9 -59 -6 -7
-6 -21 0 -35 l9 -24 9 23 9 23 23 -22 23 -22 -20 -16 c-17 -13 -21 -29 -24
-99 -2 -62 0 -82 10 -82 7 0 11 4 7 9 -3 5 -1 12 5 16 16 10 12 -23 -7 -52
-15 -22 -15 -27 -2 -37 14 -11 16 -18 26 -123 4 -51 1 -70 -17 -107 -12 -25
-30 -48 -41 -51 -10 -4 -19 -13 -19 -21 0 -8 -6 -17 -14 -20 -8 -3 -12 -16
-10 -34 2 -16 -1 -32 -6 -35 -6 -3 -10 -13 -10 -21 0 -11 7 -13 28 -8 26 7 27
6 10 -13 -10 -11 -18 -24 -18 -30 0 -6 -10 -13 -22 -16 -18 -5 -19 -8 -8 -21
9 -12 9 -16 1 -16 -8 0 -10 -8 -6 -22 6 -15 4 -20 -6 -16 -8 3 -20 0 -26 -7
-10 -10 -9 -16 4 -27 15 -11 16 -11 10 5 -7 20 3 23 21 5 17 -17 15 -48 -3
-48 -9 0 -12 -6 -9 -15 8 -20 -13 -19 -24 1 -6 10 -8 -16 -7 -75 1 -67 -1 -91
-11 -91 -14 0 -24 -23 -24 -58 0 -20 3 -23 12 -14 7 7 14 12 18 12 8 0 6 -63
-3 -77 -4 -7 -3 -49 3 -95 5 -45 10 -87 11 -93 3 -38 86 344 91 420 2 28 6 52
10 55 9 7 20 69 62 360 40 279 53 398 66 625 21 343 2 895 -29 895 -5 0 -23
-24 -39 -52 -38 -68 -71 -97 -113 -104 -60 -10 -86 34 -65 111 l7 29 -22 -19
c-22 -20 -79 -129 -79 -152 0 -7 -5 -13 -11 -13 -6 0 -8 8 -5 18 3 9 10 35 15
57 6 22 22 59 35 83 l25 42 -77 0 -77 0 -115 -117z m311 -80 c25 -15 31 -15
38 -4 11 17 31 6 31 -17 -1 -42 -16 -46 -69 -16 -28 16 -51 35 -51 42 0 17 17
15 51 -5z m-6 -53 c10 -11 26 -20 37 -20 10 0 18 -7 18 -15 0 -8 -9 -15 -20
-15 -18 0 -19 -3 -8 -20 20 -31 2 -35 -48 -9 -53 28 -58 36 -45 72 13 32 41
35 66 7z m-355 -184 c0 -3 -4 -8 -10 -11 -5 -3 -10 -1 -10 4 0 6 5 11 10 11 6
0 10 -2 10 -4z m-90 -232 c0 -6 -7 -14 -14 -17 -10 -4 -13 -1 -9 9 3 7 1 14
-4 14 -5 0 -10 19 -11 43 l-1 42 19 -39 c11 -22 20 -45 20 -52z m620 -170 c0
-8 -4 -12 -10 -9 -5 3 -10 10 -10 16 0 5 5 9 10 9 6 0 10 -7 10 -16z m-10 -69
c0 -5 -5 -3 -10 5 -5 8 -10 20 -10 25 0 6 5 3 10 -5 5 -8 10 -19 10 -25z
m-986 -161 c3 -8 2 -12 -4 -9 -6 3 -10 10 -10 16 0 14 7 11 14 -7z m70 -20 c9
-3 16 -15 16 -25 0 -22 -11 -24 -28 -7 -9 9 -12 8 -12 -5 0 -9 -4 -17 -8 -17
-5 0 -7 14 -4 30 4 31 9 34 36 24z m846 -689 c0 -14 -4 -25 -10 -25 -11 0 -14
33 -3 43 11 11 13 8 13 -18z"/>
<path d="M6136 5122 c-3 -6 -1 -14 5 -17 15 -10 25 3 12 16 -7 7 -13 7 -17 1z"/>
<path d="M6230 5360 c-14 -34 -8 -60 15 -60 27 0 73 28 95 60 l21 30 -59 0
c-57 0 -60 -1 -72 -30z"/>
<path d="M5921 4968 c0 -7 9 -26 20 -43 10 -16 24 -42 30 -57 10 -27 39 -39
39 -18 0 6 -4 10 -9 10 -5 0 -11 8 -15 18 -3 9 -10 24 -15 32 -5 8 -14 27 -22
43 -13 28 -30 37 -28 15z"/>
<path d="M6096 4964 c4 -10 13 -28 21 -39 11 -16 13 -17 13 -3 0 9 6 19 13 21
8 4 8 6 -2 6 -8 1 -23 9 -33 18 -18 16 -18 16 -12 -3z"/>
<path d="M5990 4931 c0 -6 6 -21 13 -34 6 -12 13 -24 14 -25 1 -2 9 0 18 5 14
8 15 12 3 24 -8 8 -15 19 -16 24 -1 14 -32 19 -32 6z"/>
<path d="M5910 4890 c0 -5 7 -10 16 -10 8 0 12 5 9 10 -3 6 -10 10 -16 10 -5
0 -9 -4 -9 -10z"/>
<path d="M5885 4860 c4 -6 11 -8 16 -5 5 4 9 0 9 -7 0 -8 12 -13 30 -13 34 0
39 10 11 25 -25 13 -74 13 -66 0z"/>
<path d="M6136 4845 c4 -8 8 -15 10 -15 2 0 4 7 4 15 0 8 -4 15 -10 15 -5 0
-7 -7 -4 -15z"/>
<path d="M6162 4830 c0 -14 2 -19 5 -12 2 6 2 18 0 25 -3 6 -5 1 -5 -13z"/>
<path d="M6192 4838 c-17 -17 -15 -28 6 -44 25 -20 42 -17 42 7 0 16 -4 19
-21 14 -18 -6 -20 -5 -10 14 13 23 2 28 -17 9z"/>
<path d="M5913 4773 c21 -20 40 -33 44 -30 3 4 2 7 -4 7 -6 0 -9 9 -5 22 4 17
2 20 -11 15 -10 -4 -17 -2 -17 4 0 6 -4 7 -10 4 -5 -3 -10 -1 -10 4 0 6 -5 11
-12 11 -6 0 5 -16 25 -37z"/>
<path d="M9565 4801 c-6 -5 -44 -27 -85 -48 -105 -55 -229 -132 -335 -207 -94
-67 -276 -176 -293 -176 -6 0 -12 -3 -14 -7 -1 -5 -37 -26 -78 -47 -41 -22
-89 -51 -105 -65 -17 -14 -54 -42 -82 -61 -29 -19 -54 -41 -57 -50 -9 -29 -41
-74 -73 -103 -81 -72 -203 -299 -262 -487 -56 -180 -60 -206 -69 -510 -8 -242
-12 -282 -30 -330 -38 -99 -70 -243 -77 -340 -14 -217 -36 -342 -84 -469 -11
-29 -19 -58 -18 -64 1 -7 -8 -13 -21 -15 -12 -2 -20 -8 -17 -13 4 -5 1 -9 -5
-9 -7 0 -10 -7 -6 -15 4 -12 0 -14 -19 -9 -20 5 -24 3 -19 -10 7 -18 -7 -21
-23 -5 -14 14 -26 6 -108 -68 -59 -54 -78 -96 -48 -107 22 -9 35 3 28 25 -4
10 -3 19 2 19 4 0 29 20 56 44 26 24 47 41 47 37 0 -3 7 2 15 12 10 15 21 17
44 12 26 -5 30 -4 25 9 -8 20 -5 20 37 -1 42 -20 51 -32 44 -60 -4 -16 2 -27
21 -40 69 -48 104 -86 110 -121 4 -21 17 -49 31 -63 l25 -27 -34 -24 c-18 -13
-69 -39 -113 -58 -44 -19 -156 -73 -250 -121 -210 -107 -288 -129 -393 -110
-38 7 -93 23 -122 37 -71 33 -83 27 -74 -33 4 -27 13 -57 20 -67 16 -23 8 -71
-19 -108 -11 -15 -17 -34 -13 -43 3 -9 3 -21 0 -27 -10 -15 -44 23 -44 49 0
35 -25 77 -55 93 -42 22 -64 75 -52 122 7 27 6 51 -1 76 -6 20 -20 153 -32
295 -23 286 -32 321 -93 354 -41 23 -135 22 -433 -6 -283 -27 -319 -38 -349
-113 -14 -36 -15 -63 -8 -192 10 -183 6 -251 -14 -282 -14 -23 -14 -26 11 -59
15 -19 29 -44 31 -55 2 -11 7 -114 11 -230 l7 -209 49 -42 c31 -26 58 -60 70
-88 l19 -46 -25 -20 c-38 -31 -96 -65 -109 -65 -7 0 -32 19 -56 41 -40 37 -43
43 -38 80 5 37 4 39 -31 48 -19 6 -39 8 -44 5 -14 -9 -9 -89 7 -110 28 -38 19
-51 -40 -59 -30 -3 -59 -4 -63 -1 -5 3 -23 1 -41 -4 -17 -5 -31 -6 -31 -2 0
13 15 28 34 35 11 4 16 13 12 22 -3 10 6 20 29 31 19 9 35 23 35 31 0 15 -9
14 -89 -4 -21 -5 -22 -4 -12 14 6 12 18 23 26 27 9 3 13 11 9 17 -3 6 0 22 7
36 10 19 10 26 1 32 -18 11 -11 111 8 111 8 0 30 9 48 20 44 27 69 25 138 -10
32 -16 60 -30 61 -30 2 0 0 48 -3 107 -7 109 -43 252 -96 372 -14 32 -24 91
-34 198 -8 93 -23 186 -38 240 -14 48 -22 91 -20 95 3 4 1 8 -5 8 -24 0 -19
46 18 153 59 172 191 618 191 646 0 21 -37 -3 -54 -33 -16 -31 -60 -62 -78
-58 -5 1 -8 -5 -8 -13 0 -9 -13 -24 -30 -33 -30 -17 -41 -52 -16 -52 8 0 13
-6 13 -13 -1 -6 5 -37 12 -68 20 -84 9 -140 -40 -191 -27 -29 -39 -50 -39 -71
0 -21 -6 -30 -21 -34 -11 -3 -18 -11 -15 -19 3 -7 1 -16 -4 -19 -16 -10 -11
69 5 91 8 10 15 27 15 37 0 11 8 17 24 17 17 0 28 9 40 34 24 51 19 67 -7 22
-22 -39 -47 -58 -47 -36 0 6 -7 18 -15 26 -8 9 -15 28 -15 44 0 16 -4 32 -10
35 -5 3 -10 15 -10 26 0 50 -140 220 -153 186 -6 -17 -53 -11 -94 11 -12 7
-30 12 -39 12 -10 0 -30 12 -45 26 -18 17 -32 23 -41 18 -7 -5 -26 -9 -41 -9
-40 0 -259 220 -267 267 -6 40 -25 47 -28 11 -5 -57 -53 -54 -66 5 -6 23 -13
42 -18 42 -4 0 -5 6 -2 14 3 8 13 12 25 9 27 -7 24 13 -6 41 -14 13 -25 34
-25 47 0 13 -2 38 -6 56 -7 34 16 188 42 290 15 57 19 61 36 52 18 -10 19 -9
7 12 -9 19 -9 24 5 35 15 10 15 12 1 18 -19 7 -20 26 0 26 18 0 18 8 1 39
l-13 24 -12 -34 c-10 -28 -14 -31 -21 -18 -6 9 -11 42 -12 72 -2 39 -10 65
-26 87 -23 31 -142 97 -142 78 0 -5 -15 0 -34 11 -43 27 -88 27 -138 -1 -28
-16 -41 -19 -46 -11 -5 8 -21 3 -51 -18 -24 -16 -48 -29 -54 -29 -24 0 -86
-62 -92 -93 -14 -68 -15 -69 -46 -63 -26 5 -29 3 -29 -19 0 -13 -4 -27 -10
-30 -5 -3 -10 -11 -10 -16 0 -6 5 -7 12 -3 13 8 3 -11 -21 -40 -15 -18 -15
-19 12 -14 25 5 27 3 27 -26 0 -53 12 -106 22 -100 6 4 5 -3 -1 -15 -7 -12 -9
-26 -6 -31 3 -5 1 -11 -5 -15 -5 -3 -10 -29 -10 -56 0 -28 -5 -59 -11 -70 -6
-13 -7 -25 -1 -32 5 -7 5 -25 0 -45 -7 -25 -18 -37 -44 -48 -43 -18 -57 -10
-52 26 3 19 0 26 -8 23 -19 -7 -26 -34 -13 -49 18 -22 -14 -18 -44 6 -31 24
-125 46 -139 32 -6 -6 0 -17 16 -30 24 -18 25 -22 10 -36 -30 -31 -87 -12
-131 43 -22 27 -148 71 -205 71 -20 0 -39 4 -42 9 -7 11 -59 20 -151 27 -40 3
-76 11 -85 19 -9 8 -21 15 -26 15 -5 0 -22 7 -38 15 -27 15 -28 14 -23 -7 l6
-23 -17 23 c-19 24 -52 22 -52 -4 0 -18 -12 -18 -56 1 -20 8 -40 13 -44 10 -5
-3 -11 -1 -15 5 -3 5 -14 10 -24 10 -10 0 -32 7 -47 15 -26 14 -29 13 -33 -2
-2 -12 -7 -7 -17 15 -7 18 -19 32 -26 32 -9 0 -9 -3 2 -10 30 -19 1 -9 -58 20
-34 17 -63 30 -66 30 -3 0 -6 -16 -6 -37 0 -47 -6 -40 -14 16 -7 52 -26 70
-42 39 -10 -18 -12 -19 -18 -3 -3 9 -4 20 -2 24 3 4 -9 5 -26 3 -23 -4 -36 1
-55 23 l-26 27 18 131 c9 73 21 173 27 222 10 94 105 399 153 495 24 47 24 47
94 58 38 7 86 12 105 12 31 0 40 7 80 60 25 33 46 66 46 73 0 7 -13 27 -30 45
-23 26 -34 31 -55 26 -20 -5 -25 -2 -25 13 0 10 7 29 16 41 12 18 13 23 2 27
-25 9 -103 27 -127 29 -14 2 -28 12 -32 23 -9 25 -38 36 -65 27 -23 -9 -63
-54 -64 -72 0 -7 -4 -10 -10 -7 -14 8 -13 48 1 62 16 16 3 43 -20 43 -15 0
-23 -10 -31 -40 -6 -21 -14 -42 -19 -44 -14 -9 -52 -96 -46 -106 7 -11 -43
-120 -55 -120 -6 0 -10 -12 -10 -27 0 -16 -7 -41 -15 -57 -8 -15 -15 -33 -15
-38 0 -6 -14 -30 -30 -55 -17 -24 -39 -62 -50 -84 -11 -21 -25 -39 -30 -39 -6
0 -10 -7 -10 -15 0 -8 -4 -15 -10 -15 -16 0 -42 -59 -35 -80 4 -12 2 -20 -4
-20 -6 0 -11 -9 -11 -21 0 -11 -4 -17 -10 -14 -5 3 -10 -3 -10 -14 0 -20 -19
-71 -30 -81 -19 -16 -40 -58 -40 -77 0 -16 -6 -23 -20 -23 -23 0 -24 -4 -10
-31 8 -14 8 -19 -2 -17 -7 2 -14 -7 -16 -20 -2 -13 -10 -26 -18 -29 -10 -4
-11 -10 -3 -24 6 -13 6 -19 -1 -19 -5 0 -10 -9 -10 -20 0 -11 -4 -20 -10 -20
-5 0 -10 -5 -10 -11 0 -6 -6 -16 -13 -24 -9 -8 -16 -49 -20 -105 -5 -85 -19
-126 -37 -115 -7 5 -20 -42 -20 -74 0 -27 104 -145 152 -174 25 -14 78 -39
120 -56 92 -37 196 -101 211 -131 15 -28 8 -25 197 -98 175 -67 197 -74 333
-101 53 -11 121 -31 150 -45 45 -21 57 -33 80 -78 15 -29 27 -59 27 -65 0 -7
24 -86 54 -175 60 -179 71 -229 85 -393 6 -60 17 -146 25 -190 27 -148 46
-329 46 -440 0 -94 -3 -115 -21 -145 -13 -20 -23 -56 -25 -85 -7 -132 -17
-215 -25 -215 -5 0 -9 -11 -9 -25 0 -25 -48 -108 -59 -103 -36 18 -81 52 -81
61 0 7 19 74 42 150 37 124 40 141 29 172 -8 23 -10 62 -5 122 l6 88 -44 57
c-47 61 -84 86 -102 68 -8 -8 -6 -18 6 -38 39 -63 68 -123 68 -142 0 -24 -8
-25 -32 -3 -17 15 -20 15 -42 -6 -28 -27 -50 -31 -105 -21 -34 6 -50 4 -82
-14 -32 -18 -39 -26 -39 -53 0 -17 -3 -38 -6 -47 -8 -21 17 -21 56 -1 26 13
28 18 20 41 -6 14 -10 27 -10 30 0 2 28 4 63 4 53 0 67 -4 85 -23 27 -29 30
-61 5 -53 -65 19 -69 18 -88 -18 -10 -19 -26 -34 -34 -34 -35 -1 -90 -21 -110
-41 l-21 -21 42 6 c24 3 67 12 96 20 69 19 97 7 57 -24 -15 -12 -45 -27 -66
-32 -43 -12 -58 -28 -38 -40 16 -10 24 -60 9 -60 -6 0 -4 -13 6 -32 l17 -32
16 30 c30 57 69 100 81 88 16 -16 21 -56 9 -71 -7 -7 -8 -13 -3 -13 4 0 -1 -7
-12 -15 -10 -8 -16 -15 -11 -15 4 0 -9 -23 -28 -51 l-36 -50 29 -52 c25 -46
27 -56 18 -90 -7 -27 -6 -47 2 -71 14 -37 16 -66 5 -66 -5 0 -20 20 -35 45
-37 62 -62 74 -125 66 -62 -9 -101 2 -84 23 17 21 -7 26 -116 26 -80 0 -101
-3 -130 -21 -19 -12 -37 -19 -40 -16 -3 3 -1 30 4 59 5 29 6 98 2 152 -7 92
-6 104 16 157 32 76 40 130 25 160 -19 35 -101 129 -113 129 -5 0 -3 -8 6 -18
10 -10 17 -22 17 -27 0 -5 -22 15 -50 43 -27 29 -50 56 -50 61 0 11 -30 21
-170 57 -80 21 -129 27 -206 27 -111 0 -134 -8 -176 -58 -20 -23 -46 -38 -100
-55 -114 -35 -159 -63 -232 -141 -77 -81 -130 -180 -147 -274 -6 -33 -20 -100
-31 -150 -21 -89 -25 -146 -13 -193 5 -20 2 -23 -17 -21 -13 1 -38 -1 -55 -5
-26 -6 -34 -14 -42 -42 -5 -20 -7 -42 -4 -50 3 -8 2 -30 -1 -48 -6 -29 -10
-34 -28 -31 -12 3 -44 7 -71 10 -47 6 -49 5 -44 -15 5 -21 5 -21 -13 -5 -13
12 -28 15 -45 11 -20 -5 -25 -13 -25 -37 0 -37 -26 -89 -44 -89 -7 0 -33 26
-57 57 -40 51 -44 54 -47 32 -8 -74 -22 -83 -44 -31 l-11 27 -6 -35 c-7 -38
-12 -34 -30 21 -10 31 -15 35 -46 35 -19 0 -35 -4 -35 -8 0 -4 -4 -8 -10 -8
-5 0 -7 7 -4 14 5 12 -4 15 -44 14 -46 -1 -51 -4 -66 -34 l-15 -33 49 6 c48 6
52 4 132 -54 46 -33 93 -65 105 -72 16 -8 568 -10 2180 -9 l2158 3 5 55 c7 67
22 96 55 104 62 16 107 -27 119 -116 l7 -48 220 0 c180 0 219 2 219 14 0 17
33 31 38 17 2 -6 10 -11 18 -11 8 0 14 -4 14 -10 0 -7 592 -10 1755 -10 l1755
0 0 2405 c0 2481 1 2430 -35 2396z m-6797 -849 c2 -7 -3 -12 -12 -12 -9 0 -16
7 -16 16 0 17 22 14 28 -4z m1862 -268 c0 -8 -5 -12 -10 -9 -6 4 -8 11 -5 16
9 14 15 11 15 -7z m195 -128 c34 -34 32 -52 -4 -25 -23 17 -39 20 -87 17 -33
-2 -67 -8 -76 -12 -35 -16 -18 14 18 32 50 26 116 21 149 -12z m-426 -80 c-3
-3 -11 5 -18 17 -13 21 -12 21 5 5 10 -10 16 -20 13 -22z m207 -51 c3 -13 11
-23 16 -22 6 1 12 -10 13 -25 3 -21 0 -25 -12 -21 -13 5 -14 0 -8 -25 5 -25 3
-32 -8 -32 -10 0 -14 7 -10 23 4 18 3 19 -6 7 -9 -13 -11 -13 -11 3 0 9 -4 17
-10 17 -5 0 -10 14 -10 30 0 23 4 30 20 30 23 0 26 10 8 28 -9 9 -9 12 0 12 6
0 14 -11 18 -25z m299 -48 c-5 -58 -29 -97 -68 -111 -35 -13 -45 -1 -22 24 18
20 21 28 27 80 3 28 44 73 58 65 5 -3 8 -29 5 -58z m-70 33 c-9 -14 -75 -30
-120 -29 -35 1 -33 2 18 10 32 5 65 13 75 18 22 13 35 14 27 1z m-455 -495 c0
6 5 2 11 -8 8 -14 8 -22 0 -30 -8 -8 -11 -8 -11 2 0 7 -4 9 -10 6 -6 -4 -10 6
-10 22 0 22 2 25 10 13 5 -8 10 -10 10 -5z m63 -53 c-4 -13 -3 -13 9 2 22 28
49 8 30 -21 -6 -10 -15 -10 -40 -1 -30 11 -41 35 -25 51 11 12 32 -14 26 -31z
m64 -22 c-1 -22 -17 -28 -17 -7 0 12 9 27 16 27 2 0 2 -9 1 -20z m36 -12 c-4
-22 -4 -23 11 -4 14 17 16 17 16 4 0 -9 -5 -20 -11 -24 -15 -9 -33 12 -26 30
9 24 16 19 10 -6z m76 -14 c4 3 8 -1 8 -9 0 -11 -4 -12 -14 -4 -7 6 -13 17
-12 23 0 7 2 6 6 -2 2 -6 8 -10 12 -8z m41 -34 c5 0 11 5 13 10 3 6 4 5 3 -2
-4 -18 -30 -16 -32 2 0 9 1 10 3 3 3 -7 8 -13 13 -13z m44 8 c-5 -7 -2 -9 9
-5 10 4 14 2 11 -7 -7 -19 -34 -15 -34 6 0 10 5 18 11 18 5 0 7 -5 3 -12z
m289 -35 c-17 -13 -26 -14 -90 -17 -34 -1 -37 2 -27 28 6 15 8 15 20 -1 13
-17 13 -17 14 2 0 17 2 17 10 5 6 -9 13 -11 18 -5 4 6 14 11 22 13 8 2 17 8
19 13 1 6 9 2 17 -8 11 -15 11 -20 -3 -30z m-246 5 c-3 -7 -5 -2 -5 12 0 14 2
19 5 13 2 -7 2 -19 0 -25z m63 -11 c0 -5 -4 -5 -10 -2 -5 3 -10 14 -10 23 0
15 2 15 10 2 5 -8 10 -19 10 -23z m40 7 c0 -14 -4 -23 -10 -19 -5 3 -10 15
-10 26 0 10 5 19 10 19 6 0 10 -12 10 -26z m-363 -360 c-3 -3 -12 -4 -19 -1
-8 3 -5 6 6 6 11 1 17 -2 13 -5z m-52 -17 c-10 -8 -15 -18 -12 -23 3 -6 2 -16
-4 -24 -6 -12 -9 -9 -9 11 0 25 16 49 34 49 5 0 2 -6 -9 -13z m103 -3 c12 -8
22 -20 22 -26 0 -7 -6 -5 -12 4 -7 8 -22 20 -33 26 -11 6 -15 12 -10 12 6 0
21 -7 33 -16z m-15 -26 c15 -12 14 -13 -12 -13 -16 0 -27 4 -23 9 3 5 -1 7
-10 4 -8 -4 -21 -2 -29 3 -10 6 -3 9 22 9 19 0 43 -6 52 -12z m98 -29 c5 -21
7 -22 14 -6 4 9 16 17 26 17 14 0 19 -7 19 -27 l0 -28 20 25 c14 19 22 22 31
13 9 -9 5 -20 -16 -48 -31 -40 -58 -43 -63 -6 -4 23 -4 23 -18 2 -24 -34 -44
-16 -44 41 0 53 19 64 31 17z m-121 3 c0 9 3 9 10 -2 5 -8 10 -18 10 -22 0
-11 -39 3 -52 20 -12 13 -10 14 10 3 17 -9 22 -9 22 1z m66 -20 c-6 -19 -34
-37 -42 -29 -5 5 40 55 44 51 2 -1 1 -11 -2 -22z m-95 -21 c15 -6 18 -10 8
-10 -9 -1 -25 7 -36 17 -10 9 -14 14 -8 10 6 -4 22 -12 36 -17z m359 -2 c0 -5
11 -7 25 -3 25 6 25 5 19 -33 -6 -37 -4 -41 20 -47 42 -10 32 -29 -11 -21 -52
9 -54 12 -47 49 4 27 2 35 -13 40 -10 3 -25 9 -33 12 -8 3 -5 -4 8 -14 31 -28
30 -62 -3 -62 -33 0 -75 20 -75 37 0 7 7 13 15 13 9 0 12 6 8 16 -10 27 23 44
58 32 16 -5 29 -14 29 -19z m-778 -118 c3 -3 4 -18 1 -32 -4 -20 -10 -25 -24
-22 -24 7 -24 1 1 -39 48 -79 3 -162 -59 -110 -15 12 -19 24 -15 40 5 18 9 20
20 11 23 -19 30 0 11 32 -36 63 -13 148 37 133 11 -3 24 -9 28 -13z m130 -97
c9 -54 20 -116 23 -136 7 -34 6 -38 -14 -38 -12 0 -29 9 -38 20 -18 20 -53 28
-53 11 0 -10 -38 -3 -45 9 -3 4 4 27 14 51 10 24 31 77 46 117 15 41 32 71 39
69 6 -2 19 -48 28 -103z m167 -85 c12 -11 21 -25 22 -32 0 -7 2 -31 4 -53 3
-41 3 -41 -23 -33 -15 4 -42 12 -61 16 -19 5 -43 20 -54 34 -17 24 -18 30 -6
55 22 45 77 51 118 13z m1531 11 c0 -13 -5 -18 -15 -14 -16 7 -19 17 -8 27 12
13 23 7 23 -13z m-1265 -99 c25 -97 23 -103 -30 -75 -16 8 -47 16 -67 16 -30
0 -38 4 -38 19 0 10 5 21 10 24 6 4 20 25 31 48 28 55 50 80 61 69 5 -5 20
-51 33 -101z m-186 32 c-4 -56 13 -62 21 -8 7 49 26 40 21 -10 -5 -61 -39 -88
-59 -47 -9 15 -9 33 -4 95 1 9 7 17 13 17 6 0 9 -18 8 -47z m613 -31 c1 -23 6
-42 11 -42 5 0 7 -7 4 -15 -9 -21 11 -29 29 -11 9 9 20 13 26 10 7 -4 8 -2 4
4 -6 11 41 69 49 61 10 -11 -9 -59 -24 -60 -10 0 -11 -2 -3 -6 22 -9 1 -23
-26 -18 l-27 6 28 -16 c29 -17 36 -35 14 -35 -26 0 -122 32 -135 45 -11 10 -9
16 12 33 25 19 37 40 16 27 -6 -4 -10 8 -10 28 0 67 29 57 32 -11z m-273 26
c14 -5 21 -14 18 -22 -3 -8 0 -17 7 -19 17 -7 9 -57 -9 -57 -7 0 -16 -7 -19
-16 -3 -8 -2 -12 4 -9 6 3 10 -3 10 -14 0 -32 -30 -23 -43 12 -8 21 -27 23
-27 2 0 -16 -9 -19 -34 -9 -16 6 -16 16 0 121 4 30 7 32 37 26 18 -3 43 -10
56 -15z m137 -44 c55 -16 70 -27 59 -44 -6 -9 -16 -6 -92 27 -34 14 -52 33
-33 33 7 0 36 -7 66 -16z m-9 -44 c21 -11 43 -20 50 -20 7 0 13 -7 13 -16 0
-13 -7 -15 -36 -9 -27 5 -35 3 -32 -7 3 -7 15 -15 28 -18 13 -3 25 -11 28 -18
4 -13 -3 -12 -90 9 -35 9 -37 12 -34 42 3 18 5 38 5 45 1 18 26 15 68 -8z
m146 -51 c42 -14 44 -19 18 -43 -18 -16 -19 -16 -25 9 -7 29 -26 25 -26 -6 0
-14 -6 -19 -17 -17 -10 2 -18 9 -17 16 1 6 2 24 3 38 0 16 6 24 14 20 6 -2 29
-10 50 -17z m-663 -15 c0 -8 -5 -12 -10 -9 -6 4 -8 11 -5 16 9 14 15 11 15 -7z
m860 6 c-20 -13 -43 -13 -35 0 3 6 16 10 28 10 18 0 19 -2 7 -10z m-112 -31
c2 -10 -6 -19 -18 -22 -16 -4 -20 0 -20 20 0 18 5 24 17 21 10 -2 19 -10 21
-19z m82 2 c0 -5 -7 -14 -15 -21 -12 -10 -15 -10 -15 2 0 8 3 18 7 21 9 10 23
9 23 -2z m26 -20 c0 -11 -4 -17 -8 -15 -4 3 -8 12 -8 20 0 8 4 14 8 14 4 0 8
-9 8 -19z m-632 0 c3 -5 -5 -8 -19 -7 -14 0 -25 4 -25 9 0 10 38 9 44 -2z
m843 -81 c11 -30 30 -91 43 -135 26 -93 27 -95 39 -115 5 -8 17 -32 26 -54 17
-38 17 -39 -14 -117 -36 -91 -95 -213 -169 -347 -56 -101 -71 -139 -53 -128
24 15 148 220 220 364 23 45 46 82 51 82 9 0 15 -55 12 -110 -1 -13 6 -32 14
-41 14 -16 43 -144 44 -196 0 -16 -19 -33 -72 -67 -39 -25 -80 -46 -90 -46
-11 0 -18 -7 -18 -19 0 -11 -5 -23 -10 -26 -18 -11 -61 -105 -68 -149 -7 -35
-11 -41 -35 -44 -16 -2 -34 1 -41 7 -9 7 -19 6 -35 -5 -12 -9 -23 -14 -24 -13
-1 2 -12 19 -25 37 -13 18 -20 36 -17 41 3 5 1 20 -4 33 -8 21 -3 32 32 73
l41 48 -37 -6 -37 -6 0 44 c0 24 5 47 10 50 12 7 13 48 3 59 -11 11 -13 135
-2 142 5 3 9 31 9 63 0 39 5 63 15 71 9 7 12 22 9 39 -4 18 0 33 11 44 9 9 13
21 10 27 -3 5 0 36 8 67 8 32 18 78 21 103 4 25 11 54 16 65 5 11 16 43 26 70
10 28 21 55 26 61 5 7 8 16 6 20 -4 15 26 85 32 76 3 -4 15 -32 27 -62z
m-1337 56 c0 -3 -4 -8 -10 -11 -5 -3 -10 -1 -10 4 0 6 5 11 10 11 6 0 10 -2
10 -4z m660 -17 c0 -6 -4 -7 -10 -4 -5 3 -10 11 -10 16 0 6 5 7 10 4 6 -3 10
-11 10 -16z m-623 -11 c-3 -8 -6 -5 -6 6 -1 11 2 17 5 13 3 -3 4 -12 1 -19z
m720 -4 c-3 -3 -12 -4 -19 -1 -8 3 -5 6 6 6 11 1 17 -2 13 -5z m2010 -140 c-3
-65 -8 -136 -12 -156 -5 -28 -4 -38 6 -38 10 0 10 -3 1 -12 -7 -7 -12 -24 -12
-40 0 -15 -7 -53 -16 -85 -9 -32 -19 -70 -21 -85 -6 -34 -16 -35 -55 -6 -28
19 -30 24 -24 65 3 24 13 54 22 68 9 13 13 29 9 35 -4 6 -11 35 -16 63 -17
103 -22 119 -38 124 -9 2 -24 9 -33 14 -25 13 -74 0 -103 -27 -24 -22 -25 -29
-25 -126 0 -71 4 -110 13 -123 9 -12 12 -35 9 -58 -4 -32 -10 -41 -38 -55 -29
-13 -41 -14 -77 -4 -39 11 -46 9 -112 -22 -97 -47 -109 -49 -140 -17 -24 26
-26 36 -35 172 -5 79 -11 194 -13 256 l-5 111 82 11 c64 9 418 47 591 64 17 1
34 0 38 -4 5 -3 6 -60 4 -125z m-2551 69 c-10 -10 -19 5 -10 18 6 11 8 11 12
0 2 -7 1 -15 -2 -18z m247 -46 c3 -8 -1 -14 -9 -14 -8 0 -14 6 -14 14 0 7 4
13 9 13 5 0 11 -6 14 -13z m-298 -7 c-3 -5 -11 -10 -16 -10 -6 0 -7 5 -4 10 3
6 11 10 16 10 6 0 7 -4 4 -10z m204 -46 l76 -14 -69 6 c-37 2 -82 11 -100 19
-21 10 -23 13 -7 9 13 -4 58 -13 100 -20z m152 -31 c13 -16 12 -17 -3 -4 -17
13 -22 21 -14 21 2 0 10 -8 17 -17z m77 -10 c-10 -2 -26 -2 -35 0 -10 3 -2 5
17 5 19 0 27 -2 18 -5z m302 -32 c34 -6 37 -9 15 -9 -16 -1 -48 3 -70 7 -53
11 -5 12 55 2z m-968 -78 c35 -34 35 -39 -2 -58 -42 -22 -50 -18 -12 6 l32 21
-24 19 c-29 22 -46 24 -46 5 0 -19 -25 -27 -39 -13 -8 8 -3 16 21 29 42 22 37
22 70 -9z m-12 -29 c0 -3 -13 -10 -30 -15 -34 -12 -37 -24 -13 -51 21 -24 39
-23 46 3 3 12 11 19 18 17 24 -8 20 -25 -10 -38 -26 -11 -34 -9 -61 10 -38 27
-38 36 3 60 32 20 47 25 47 14z m122 -26 c2 -13 10 -23 18 -23 9 0 14 7 12 19
-2 10 1 15 7 12 5 -4 9 -19 9 -34 -1 -27 -2 -28 -34 -18 -28 9 -34 16 -34 38
0 33 17 37 22 6z m318 -48 c13 -9 13 -10 0 -10 -8 0 -22 5 -30 10 -13 9 -13
10 0 10 8 0 22 -5 30 -10z m-220 -10 c0 -5 -4 -10 -9 -10 -6 0 -13 5 -16 10
-3 6 1 10 9 10 9 0 16 -4 16 -10z m40 -11 c0 -5 -7 -9 -15 -9 -15 0 -20 12 -9
23 8 8 24 -1 24 -14z m270 12 c0 -5 -11 -8 -25 -8 -14 0 -25 3 -25 8 0 5 11 9
25 9 14 0 25 -4 25 -9z m-2220 -26 c0 -3 -9 -5 -20 -5 -11 0 -20 7 -20 15 0
13 4 14 20 5 11 -6 20 -13 20 -15z m1849 9 c2 -2 -7 -4 -22 -4 -14 0 -29 5
-32 10 -6 10 42 4 54 -6z m137 -11 c-10 -10 -19 5 -10 18 6 11 8 11 12 0 2 -7
1 -15 -2 -18z m329 17 c4 -6 -2 -9 -14 -7 -29 4 -39 17 -13 17 11 0 24 -5 27
-10z m-265 -17 c0 -14 -10 -16 -34 -7 -25 9 -19 22 9 20 14 0 25 -7 25 -13z
m442 -6 c6 -31 -1 -47 -19 -47 -10 0 -13 6 -9 16 3 9 6 24 6 35 0 27 17 24 22
-4z m46 -6 c-1 -9 1 -22 6 -29 12 -19 -1 -27 -19 -12 -10 8 -12 17 -5 30 6 11
5 21 -3 29 -9 10 -8 11 6 5 10 -3 17 -14 15 -23z m-448 4 c0 -8 -4 -15 -10
-15 -5 0 -10 7 -10 15 0 8 5 15 10 15 6 0 10 -7 10 -15z m339 -7 c5 -13 7 -26
4 -31 -7 -13 -23 3 -23 24 0 10 -7 19 -15 19 -8 0 -15 -9 -15 -20 0 -21 -15
-27 -25 -10 -10 16 15 40 42 40 15 0 27 -8 32 -22z m-144 2 c3 -5 1 -10 -4
-10 -6 0 -11 5 -11 10 0 6 2 10 4 10 3 0 8 -4 11 -10z m55 -5 c0 -8 -4 -15
-10 -15 -5 0 -10 7 -10 15 0 8 5 15 10 15 6 0 10 -7 10 -15z m262 -8 c20 18
20 17 17 -2 -6 -28 -59 -35 -59 -7 0 28 14 37 18 12 4 -21 4 -21 24 -3z m138
-29 c0 -4 -9 -3 -20 4 -11 7 -20 19 -20 27 0 11 5 10 20 -4 11 -10 20 -22 20
-27z m47 10 c-3 -7 -5 -2 -5 12 0 14 2 19 5 13 2 -7 2 -19 0 -25z m-567 7 c0
-8 -7 -15 -15 -15 -13 0 -14 3 -3 15 16 18 18 18 18 0z m460 -5 c0 -11 -2 -20
-4 -20 -2 0 -6 9 -9 20 -3 11 -1 20 4 20 5 0 9 -9 9 -20z m90 5 c0 -8 -4 -15
-10 -15 -5 0 -10 7 -10 15 0 8 5 15 10 15 6 0 10 -7 10 -15z m-459 -9 c8 4 9
3 5 -4 -8 -14 -56 -16 -56 -4 0 16 13 22 26 11 7 -6 19 -7 25 -3z m-1886 -120
c28 -15 29 -16 6 -16 -23 0 -50 24 -51 45 0 6 4 5 8 -2 4 -6 21 -19 37 -27z
m-35 -32 c0 -8 -7 -14 -15 -14 -8 0 -15 9 -15 20 0 13 5 18 15 14 8 -4 15 -12
15 -20z m3676 -123 c7 -13 15 -82 20 -155 14 -235 12 -242 -35 -192 -23 24
-23 26 -7 72 18 53 23 129 6 86 -8 -19 -13 -21 -29 -12 -28 15 -33 13 -26 -10
5 -15 3 -18 -8 -14 -8 3 -17 -2 -20 -10 -5 -11 -20 -16 -52 -16 l-45 0 0 59
c0 32 -3 85 -6 119 l-7 60 49 7 c27 4 67 13 89 20 49 16 57 15 71 -14z m849
-135 c25 -15 45 -31 45 -36 0 -6 8 -10 19 -10 10 0 21 -9 24 -20 4 -16 11 -20
29 -16 19 5 34 -8 88 -73 59 -72 94 -136 84 -153 -8 -13 -46 6 -56 28 -14 30
-25 30 -48 2 l-17 -22 -27 43 c-15 24 -58 72 -96 108 -74 70 -128 159 -116
190 7 16 8 17 17 1 5 -9 29 -28 54 -42z m75 32 c0 -6 -6 -5 -15 2 -8 7 -15 14
-15 16 0 2 7 1 15 -2 8 -4 15 -11 15 -16z m-295 -80 c4 -17 3 -28 -3 -28 -12
0 -33 56 -24 64 9 9 20 -6 27 -36z m-3082 25 c5 -3 0 -11 -10 -18 -10 -7 -21
-11 -25 -9 -5 3 -8 1 -8 -3 0 -5 -11 -10 -24 -11 -19 -1 -22 2 -19 21 4 19 11
23 41 24 20 1 41 -1 45 -4z m57 -3 c0 -5 3 -9 8 -9 17 3 32 -2 32 -10 0 -5
-15 -8 -32 -6 -18 2 -37 4 -42 4 -11 1 13 31 25 31 5 0 9 -4 9 -10z m3364 -26
c3 -8 2 -12 -4 -9 -6 3 -10 10 -10 16 0 14 7 11 14 -7z m-458 -16 c16 -12 28
-129 14 -138 -15 -9 -1 -40 16 -33 19 7 18 -21 -1 -37 -19 -16 -81 -7 -105 15
-16 14 -16 19 1 88 10 39 21 84 24 99 5 27 21 29 51 6z m-2919 -24 c-3 -3 -12
-4 -19 -1 -8 3 -5 6 6 6 11 1 17 -2 13 -5z m3109 -259 c14 -27 3 -79 -18 -83
-26 -5 -41 34 -34 86 3 25 12 52 18 60 11 12 14 10 19 -14 3 -16 10 -38 15
-49z m-1078 15 c-3 -18 1 -35 9 -41 21 -18 16 -57 -9 -65 -13 -4 -29 -15 -36
-25 -35 -50 -53 -3 -33 84 16 69 78 111 69 47z m1397 6 c28 -23 29 -25 10 -32
-19 -7 -82 -34 -97 -42 -4 -2 -13 8 -20 22 -10 23 -8 29 12 51 29 31 57 32 95
1z m-215 -48 c14 -13 52 -40 86 -60 33 -21 68 -46 78 -57 10 -11 40 -27 67
-36 41 -14 48 -20 45 -38 -3 -24 -32 -30 -77 -15 -15 5 -44 5 -67 -1 -25 -5
-42 -5 -42 0 0 5 -26 9 -57 9 -69 1 -103 23 -108 72 -3 18 -7 46 -11 61 -4 18
0 42 11 67 19 43 27 43 75 -2z m-4000 -13 c0 -8 -44 -23 -53 -18 -14 8 4 23
29 23 13 0 24 -2 24 -5z m71 -25 l24 -20 -26 9 c-15 6 -32 5 -43 -1 -16 -9
-16 -8 -7 11 14 26 23 26 52 1z m2981 -31 c79 -40 92 -109 20 -109 -8 0 -24
-7 -33 -16 -16 -14 -23 -15 -48 -4 -17 7 -33 11 -37 10 -10 -3 -44 53 -44 72
0 11 10 20 28 24 15 3 38 10 52 16 l25 10 -22 9 c-13 5 -23 11 -23 14 0 8 37
-4 82 -26z m-2840 -16 c-24 -44 -71 -76 -114 -79 -24 -1 -59 -5 -78 -9 -32 -5
-33 -5 -13 7 12 7 21 17 20 21 -3 13 75 37 88 28 14 -12 46 2 74 33 27 28 38
28 23 -1z m-94 0 c2 -8 -6 -13 -22 -13 -25 0 -33 10 -19 24 10 10 36 3 41 -11z
m3336 -5 c24 -34 19 -47 -7 -16 -12 15 -31 29 -42 31 -15 4 -13 5 7 6 17 1 32
-7 42 -21z m-730 -27 c21 -33 -29 -59 -126 -67 l-70 -6 4 28 c3 28 5 29 88 40
47 6 88 12 92 13 4 0 9 -3 12 -8z m-204 -11 c0 -5 -5 -10 -11 -10 -5 0 -7 5
-4 10 3 6 8 10 11 10 2 0 4 -4 4 -10z m630 -50 c0 -5 -4 -10 -10 -10 -5 0 -10
5 -10 10 0 6 5 10 10 10 6 0 10 -4 10 -10z m230 -25 c7 -8 8 -15 2 -15 -5 0
-15 7 -22 15 -7 8 -8 15 -2 15 5 0 15 -7 22 -15z m-5545 -115 c3 -5 1 -10 -4
-10 -6 0 -11 5 -11 10 0 6 2 10 4 10 3 0 8 -4 11 -10z m1656 -17 c-8 -15 -10
-15 -11 -2 0 17 10 32 18 25 2 -3 -1 -13 -7 -23z"/>
<path d="M4420 2874 c0 -8 5 -12 10 -9 6 4 8 11 5 16 -9 14 -15 11 -15 -7z"/>
<path d="M4760 2241 c0 -5 5 -13 10 -16 6 -3 10 -2 10 4 0 5 -4 13 -10 16 -5
3 -10 2 -10 -4z"/>
<path d="M4130 2039 c0 -8 -3 -24 -6 -36 -5 -17 -2 -23 10 -23 12 0 14 7 9 33
-7 35 -13 48 -13 26z"/>
<path d="M4292 1958 c-15 -15 -16 -48 -1 -48 5 0 7 5 4 10 -3 6 3 10 15 10 15
0 20 5 18 17 -4 21 -21 26 -36 11z"/>
<path d="M4546 1894 c-7 -19 1 -34 18 -34 9 0 12 9 8 25 -5 28 -17 33 -26 9z"/>
<path d="M4727 1883 c-9 -9 -9 -43 1 -43 18 1 34 19 29 34 -7 17 -19 21 -30 9z"/>
<path d="M5440 1501 c0 -23 43 -182 48 -177 2 3 -6 45 -18 93 -21 85 -30 109
-30 84z"/>
<path d="M5401 1425 c1 -19 18 -51 18 -35 0 8 -4 22 -9 30 -5 8 -9 11 -9 5z"/>
<path d="M5430 1305 c8 -36 19 -65 24 -65 4 0 6 6 3 13 -2 6 -10 36 -17 65 -8
28 -17 52 -20 52 -3 0 1 -29 10 -65z"/>
<path d="M5371 1330 c0 -8 4 -24 9 -35 5 -13 9 -14 9 -5 0 8 -4 24 -9 35 -5
13 -9 14 -9 5z"/>
<path d="M5391 1255 c0 -11 6 -40 13 -65 19 -58 20 -30 2 35 -8 28 -15 41 -15
30z"/>
<path d="M5342 1225 c0 -11 3 -29 8 -40 11 -25 11 1 0 35 -6 20 -8 21 -8 5z"/>
<path d="M5301 1165 c-1 -23 35 -174 43 -183 9 -9 7 7 -18 108 -13 52 -24 86
-25 75z"/>
<path d="M5362 1140 c0 -14 3 -34 8 -45 l9 -20 -1 20 c0 11 -4 31 -8 45 l-8
25 0 -25z"/>
<path d="M6145 4790 c-3 -5 -2 -10 4 -10 5 0 13 5 16 10 3 6 2 10 -4 10 -5 0
-13 -4 -16 -10z"/>
<path d="M6190 4773 c0 -7 -7 -10 -17 -7 -17 5 -16 5 0 -6 12 -7 16 -18 12
-31 -7 -21 7 -26 22 -6 6 8 5 21 -3 37 -8 14 -14 20 -14 13z"/>
<path d="M5790 4749 c0 -5 9 -9 20 -9 11 0 20 2 20 4 0 2 -9 6 -20 9 -11 3
-20 1 -20 -4z"/>
<path d="M5855 4741 c-3 -5 -1 -12 5 -16 5 -3 10 1 10 9 0 18 -6 21 -15 7z"/>
<path d="M6136 4705 c4 -8 11 -15 16 -15 6 0 5 6 -2 15 -7 8 -14 15 -16 15 -2
0 -1 -7 2 -15z"/>
<path d="M6240 4700 c8 -5 22 -9 30 -9 10 0 8 3 -5 9 -27 12 -43 12 -25 0z"/>
<path d="M5842 4680 c7 -11 16 -16 21 -11 12 12 0 31 -19 31 -12 0 -12 -3 -2
-20z"/>
<path d="M5896 4681 c-4 -7 -5 -15 -2 -18 9 -9 19 4 14 18 -4 11 -6 11 -12 0z"/>
<path d="M6106 4682 c-3 -6 -1 -14 5 -17 15 -10 25 3 12 16 -7 7 -13 7 -17 1z"/>
<path d="M5785 4661 c-8 -27 -4 -33 12 -16 6 6 7 18 3 25 -6 9 -10 7 -15 -9z"/>
<path d="M5736 4651 c-3 -5 1 -14 8 -20 12 -10 13 -8 9 8 -6 23 -9 25 -17 12z"/>
<path d="M6027 4608 c-4 -12 -4 -24 -2 -27 3 -2 5 1 5 9 0 10 4 10 17 -1 15
-12 16 -12 10 4 -4 10 -7 23 -7 28 0 18 -18 8 -23 -13z"/>
<path d="M6190 4605 c0 -5 5 -17 10 -25 5 -8 10 -10 10 -5 0 6 -5 17 -10 25
-5 8 -10 11 -10 5z"/>
<path d="M5985 4590 c3 -5 8 -10 11 -10 2 0 4 5 4 10 0 6 -5 10 -11 10 -5 0
-7 -4 -4 -10z"/>
<path d="M6130 4590 c0 -5 5 -10 11 -10 5 0 7 5 4 10 -3 6 -8 10 -11 10 -2 0
-4 -4 -4 -10z"/>
<path d="M5770 4584 c0 -4 8 -13 18 -21 16 -14 16 -14 0 -9 -12 3 -18 0 -18
-9 0 -17 25 -20 35 -5 6 10 -15 50 -27 50 -5 0 -8 -3 -8 -6z"/>
<path d="M6230 4580 c0 -5 5 -10 10 -10 6 0 10 5 10 10 0 6 -4 10 -10 10 -5 0
-10 -4 -10 -10z"/>
<path d="M6235 4540 c8 -9 15 -24 15 -33 0 -33 15 -16 16 18 0 30 -2 34 -22
33 -21 -2 -22 -4 -9 -18z"/>
<path d="M5665 4539 c-4 -6 -5 -12 -2 -15 2 -3 7 2 10 11 7 17 1 20 -8 4z"/>
<path d="M6147 4529 c4 -13 8 -18 11 -10 2 7 -1 18 -6 23 -8 8 -9 4 -5 -13z"/>
<path d="M3210 4536 c0 -15 44 -76 54 -76 14 0 46 31 46 44 0 18 -32 36 -64
36 -20 0 -36 -2 -36 -4z"/>
<path d="M5610 4519 c0 -5 5 -7 10 -4 6 3 10 8 10 11 0 2 -4 4 -10 4 -5 0 -10
-5 -10 -11z"/>
<path d="M5700 4506 c0 -2 8 -10 18 -17 15 -13 16 -12 3 4 -13 16 -21 21 -21
13z"/>
<path d="M5935 4500 c3 -5 11 -10 16 -10 6 0 7 5 4 10 -3 6 -11 10 -16 10 -6
0 -7 -4 -4 -10z"/>
<path d="M5797 4481 c3 -12 9 -21 14 -21 14 0 11 16 -5 29 -12 10 -13 8 -9 -8z"/>
<path d="M5626 4480 c-19 -6 -19 -7 -1 -14 10 -3 22 -3 28 3 12 12 -4 20 -27
11z"/>
<path d="M5910 4480 c0 -5 5 -10 10 -10 6 0 10 5 10 10 0 6 -4 10 -10 10 -5 0
-10 -4 -10 -10z"/>
<path d="M6100 4479 c0 -6 35 -19 52 -19 4 0 5 6 2 14 -5 13 -54 18 -54 5z"/>
<path d="M6005 4470 c3 -5 15 -10 26 -10 11 0 17 5 14 10 -3 6 -15 10 -26 10
-11 0 -17 -4 -14 -10z"/>
<path d="M6210 4446 c0 -7 82 -47 87 -43 2 3 -14 14 -37 26 -41 21 -50 24 -50
17z"/>
<path d="M5785 4419 c34 -27 42 -48 23 -60 -7 -4 -9 -11 -5 -15 7 -7 36 23 37
37 0 14 -36 48 -60 54 -24 7 -24 6 5 -16z"/>
<path d="M6085 4420 c3 -5 10 -10 16 -10 5 0 9 5 9 10 0 6 -7 10 -16 10 -8 0
-12 -4 -9 -10z"/>
<path d="M5735 4410 c-3 -5 -1 -10 4 -10 6 0 11 5 11 10 0 6 -2 10 -4 10 -3 0
-8 -4 -11 -10z"/>
<path d="M5587 4396 c-4 -9 -2 -18 3 -21 6 -4 10 -11 10 -16 0 -6 -5 -7 -12
-3 -7 4 -8 3 -4 -4 16 -26 47 -2 55 42 3 17 -46 18 -52 2z"/>
<path d="M6020 4389 c0 -5 5 -7 10 -4 6 3 10 8 10 11 0 2 -4 4 -10 4 -5 0 -10
-5 -10 -11z"/>
<path d="M5700 4369 c0 -5 5 -7 10 -4 6 3 10 8 10 11 0 2 -4 4 -10 4 -5 0 -10
-5 -10 -11z"/>
<path d="M5965 4310 c3 -5 8 -10 11 -10 2 0 4 5 4 10 0 6 -5 10 -11 10 -5 0
-7 -4 -4 -10z"/>
<path d="M5793 4302 c-8 -5 -9 -13 -3 -22 11 -17 23 -8 18 14 -2 9 -8 12 -15
8z"/>
<path d="M5880 4296 c0 -9 5 -16 10 -16 6 0 10 4 10 9 0 6 -4 13 -10 16 -5 3
-10 -1 -10 -9z"/>
<path d="M5642 4288 c5 -15 28 -23 28 -10 0 5 -7 13 -16 16 -10 4 -14 1 -12
-6z"/>
<path d="M6220 4289 c0 -5 5 -7 10 -4 6 3 10 8 10 11 0 2 -4 4 -10 4 -5 0 -10
-5 -10 -11z"/>
<path d="M5940 4250 c0 -5 5 -10 11 -10 5 0 7 5 4 10 -3 6 -8 10 -11 10 -2 0
-4 -4 -4 -10z"/>
<path d="M5860 4240 c0 -5 5 -10 11 -10 5 0 7 5 4 10 -3 6 -8 10 -11 10 -2 0
-4 -4 -4 -10z"/>
<path d="M5781 4224 c0 -11 3 -14 6 -6 3 7 2 16 -1 19 -3 4 -6 -2 -5 -13z"/>
<path d="M4531 4208 c12 -23 11 -28 -6 -28 -8 0 -15 -4 -15 -10 0 -5 -7 -10
-15 -10 -8 0 -15 -5 -15 -10 0 -6 -6 -10 -12 -9 -20 3 -75 -23 -60 -28 19 -7
14 -23 -23 -69 -41 -49 -42 -54 -15 -54 24 0 25 -4 4 -35 -9 -14 -13 -32 -10
-41 4 -9 0 -24 -8 -33 -20 -22 -32 -82 -35 -172 -2 -59 1 -80 14 -93 9 -9 17
-16 19 -16 1 0 2 23 3 50 3 67 18 122 54 194 16 33 29 66 29 74 0 8 28 42 63
77 57 56 69 64 123 74 32 6 74 15 92 20 48 13 139 -14 160 -48 9 -14 35 -47
59 -73 24 -26 43 -52 43 -57 0 -5 -25 2 -56 16 -53 24 -58 25 -107 12 -47 -13
-52 -17 -55 -44 -2 -17 4 -44 13 -61 24 -46 64 -64 144 -67 62 -3 70 -1 75 17
3 10 1 28 -5 38 -6 12 -6 18 0 18 14 0 19 -11 46 -97 22 -74 24 -76 30 -46 7
29 32 63 42 55 4 -3 52 27 69 43 6 6 9 15 7 22 -2 6 1 14 6 18 6 3 11 15 11
26 0 20 16 26 22 8 2 -7 10 -4 18 7 9 11 10 15 2 10 -7 -4 -15 -1 -19 10 -4
10 0 20 10 26 26 14 21 38 -8 39 -37 2 -43 3 -51 12 -4 4 -1 7 6 7 9 0 7 5 -6
16 -10 8 -13 12 -5 8 9 -4 12 -3 8 3 -4 6 -16 13 -27 16 -14 4 -20 0 -20 -12
0 -9 -4 -21 -9 -26 -5 -6 -20 -41 -34 -80 l-25 -70 -27 60 c-16 33 -27 66 -26
73 1 8 -4 21 -12 30 -22 25 -5 62 28 62 15 0 24 4 20 10 -3 6 -15 10 -26 10
-16 0 -19 4 -14 21 9 27 -11 40 -42 28 -31 -12 -73 -12 -73 0 0 5 -13 14 -29
19 -17 6 -35 19 -42 30 -10 16 -18 18 -45 12 -45 -10 -84 -1 -84 19 0 21 -27
24 -34 4 -6 -16 -33 -17 -38 -2 -2 5 -24 11 -50 12 -40 2 -45 0 -37 -15z"/>
<path d="M6160 4215 c0 -9 5 -15 11 -13 6 2 11 8 11 13 0 5 -5 11 -11 13 -6 2
-11 -4 -11 -13z"/>
<path d="M5961 4213 c-1 -6 -4 -20 -7 -30 -5 -17 -5 -17 6 0 6 10 9 23 6 30
-3 9 -5 9 -5 0z"/>
<path d="M6020 4179 c7 -11 14 -19 16 -16 7 7 -7 37 -17 37 -6 0 -5 -9 1 -21z"/>
<path d="M6101 4174 c0 -11 3 -14 6 -6 3 7 2 16 -1 19 -3 4 -6 -2 -5 -13z"/>
<path d="M5810 4145 c-14 -16 -10 -18 14 -9 9 3 16 10 16 15 0 14 -16 11 -30
-6z"/>
<path d="M6308 4120 c-11 -38 -10 -56 3 -43 6 6 9 23 7 39 l-3 29 -7 -25z"/>
<path d="M5887 4115 c-4 -8 -2 -17 3 -20 6 -4 10 3 10 14 0 25 -6 27 -13 6z"/>
<path d="M5570 4100 c0 -5 5 -10 10 -10 6 0 10 5 10 10 0 6 -4 10 -10 10 -5 0
-10 -4 -10 -10z"/>
<path d="M5970 4099 c0 -5 5 -7 10 -4 6 3 10 8 10 11 0 2 -4 4 -10 4 -5 0 -10
-5 -10 -11z"/>
<path d="M5160 4089 c0 -5 5 -7 10 -4 6 3 10 8 10 11 0 2 -4 4 -10 4 -5 0 -10
-5 -10 -11z"/>
<path d="M5202 4074 c-40 -28 -22 -76 33 -88 17 -4 25 -3 18 2 -9 6 -8 12 7
25 24 20 28 62 5 53 -9 -3 -15 0 -15 9 0 19 -20 19 -48 -1z m32 -5 c-3 -6 -1
-15 6 -19 7 -5 9 -16 5 -30 -6 -20 -8 -21 -23 -6 -13 12 -13 20 -4 41 6 14 14
25 17 25 4 0 3 -5 -1 -11z"/>
<path d="M5850 4084 c0 -17 17 -36 24 -26 3 5 -1 15 -9 22 -8 7 -15 9 -15 4z"/>
<path d="M5750 4065 c0 -9 5 -15 11 -13 6 2 11 8 11 13 0 5 -5 11 -11 13 -6 2
-11 -4 -11 -13z"/>
<path d="M5300 4059 c0 -5 5 -7 10 -4 6 3 10 8 10 11 0 2 -4 4 -10 4 -5 0 -10
-5 -10 -11z"/>
<path d="M5795 4049 c-9 -14 -2 -20 14 -10 8 6 9 11 3 15 -6 3 -14 1 -17 -5z"/>
<path d="M5931 4051 c-9 -6 -10 -11 -2 -15 13 -8 31 1 31 15 0 11 -11 11 -29
0z"/>
<path d="M5620 4019 c0 -5 5 -7 10 -4 6 3 10 8 10 11 0 2 -4 4 -10 4 -5 0 -10
-5 -10 -11z"/>
<path d="M5306 4004 c-4 -9 -4 -19 -1 -22 2 -3 7 3 11 12 4 9 4 19 1 22 -2 3
-7 -3 -11 -12z"/>
<path d="M6010 3991 c0 -5 7 -11 15 -15 8 -3 15 -1 15 3 0 5 -7 11 -15 15 -8
3 -15 1 -15 -3z"/>
<path d="M5286 3962 c-3 -6 -1 -14 5 -17 14 -9 20 -2 10 14 -6 8 -11 9 -15 3z"/>
<path d="M5860 3942 c6 -13 14 -21 18 -18 3 4 -2 14 -12 24 -18 16 -18 16 -6
-6z"/>
<path d="M4505 3922 c-62 -29 -78 -53 -69 -98 5 -22 7 -44 6 -50 -1 -7 11 -14
28 -16 16 -3 30 -1 30 4 0 5 8 5 18 0 31 -17 107 14 141 57 17 21 28 41 24 44
-3 4 2 18 11 31 8 14 12 27 7 31 -5 3 -42 8 -83 11 -59 4 -81 1 -113 -14z"/>
<path d="M5335 3900 c3 -5 11 -10 16 -10 6 0 7 5 4 10 -3 6 -11 10 -16 10 -6
0 -7 -4 -4 -10z"/>
<path d="M5215 3840 c-3 -5 -1 -10 4 -10 6 0 11 5 11 10 0 6 -2 10 -4 10 -3 0
-8 -4 -11 -10z"/>
<path d="M6135 3840 c-3 -5 1 -10 9 -10 9 0 16 5 16 10 0 6 -4 10 -9 10 -6 0
-13 -4 -16 -10z"/>
<path d="M5995 3730 c-3 -5 1 -13 10 -16 22 -9 29 1 11 15 -10 8 -16 9 -21 1z"/>
<path d="M6100 3661 c0 -6 4 -13 10 -16 6 -3 7 1 4 9 -7 18 -14 21 -14 7z"/>
<path d="M5065 3578 c-4 -9 3 -31 14 -49 l20 -33 -6 39 c-7 46 -20 66 -28 43z"/>
<path d="M4307 3574 c-4 -4 -7 -23 -6 -43 l0 -36 17 33 c10 21 12 36 6 42 -6
6 -13 7 -17 4z"/>
<path d="M4326 3520 c-19 -49 -19 -50 -2 -50 8 0 16 16 20 41 9 55 2 59 -18 9z"/>
<path d="M5035 2840 c0 -22 1 -40 3 -40 1 0 7 12 13 27 7 20 6 30 -3 39 -11
11 -13 6 -13 -26z"/>
<path d="M5861 2237 c-16 -41 -13 -57 4 -23 9 16 14 34 11 40 -2 6 -9 -2 -15
-17z"/>
<path d="M7828 1823 c7 -3 16 -2 19 1 4 3 -2 6 -13 5 -11 0 -14 -3 -6 -6z"/>
<path d="M7705 1800 c3 -5 8 -10 11 -10 2 0 4 5 4 10 0 6 -5 10 -11 10 -5 0
-7 -4 -4 -10z"/>
<path d="M7738 1803 c7 -3 16 -2 19 1 4 3 -2 6 -13 5 -11 0 -14 -3 -6 -6z"/>
<path d="M7795 1800 c3 -5 10 -10 16 -10 5 0 9 5 9 10 0 6 -7 10 -16 10 -8 0
-12 -4 -9 -10z"/>
<path d="M7684 1737 c-76 -66 -93 -76 -44 -24 39 42 42 47 22 47 -14 0 -22 -6
-23 -17 0 -25 -55 -66 -79 -60 -17 4 -18 2 -9 -14 13 -25 4 -39 -24 -39 -13 0
-32 -7 -43 -15 -12 -8 -24 -12 -27 -8 -3 3 -20 -9 -37 -26 -17 -17 -41 -31
-53 -31 -17 0 -19 -2 -8 -9 18 -12 91 16 109 40 7 10 19 16 27 13 8 -4 18 1
21 10 4 10 18 16 40 16 32 0 34 2 28 25 -6 26 4 33 23 14 8 -8 30 7 79 55 76
72 74 91 -2 23z"/>
<path d="M7416 1738 c3 -5 10 -6 15 -3 13 9 11 12 -6 12 -8 0 -12 -4 -9 -9z"/>
<path d="M7556 1725 c4 -8 12 -15 20 -15 8 0 11 6 8 15 -4 8 -12 15 -20 15 -8
0 -11 -6 -8 -15z"/>
<path d="M7295 1683 c8 -27 -9 -31 -25 -5 -10 15 -10 15 -8 -3 2 -12 12 -21
26 -23 24 -4 29 13 11 38 -8 12 -9 10 -4 -7z"/>
<path d="M7480 1681 c0 -13 26 -32 33 -24 8 7 -11 33 -24 33 -5 0 -9 -4 -9 -9z"/>
<path d="M7385 1610 c3 -5 8 -10 11 -10 2 0 4 5 4 10 0 6 -5 10 -11 10 -5 0
-7 -4 -4 -10z"/>
<path d="M7410 1450 c0 -5 5 -10 10 -10 6 0 10 5 10 10 0 6 -4 10 -10 10 -5 0
-10 -4 -10 -10z"/>
<path d="M372 1015 c-11 -12 -10 -15 3 -15 8 0 15 5 15 11 0 5 5 7 10 4 6 -3
10 -1 10 4 0 16 -23 13 -38 -4z"/>
<path d="M138 1003 c7 -3 16 -2 19 1 4 3 -2 6 -13 5 -11 0 -14 -3 -6 -6z"/>
<path d="M0 990 c0 -7 8 -10 20 -7 27 7 27 -19 0 -33 -18 -10 -20 -21 -20
-120 0 -61 4 -110 8 -110 5 0 17 7 28 15 10 8 29 15 40 15 12 0 27 7 34 15 7
8 16 15 21 15 13 0 59 46 59 59 0 18 28 13 33 -6 4 -15 5 -14 6 3 2 30 -18 44
-64 44 -31 0 -37 3 -25 11 11 8 12 12 3 16 -29 11 -56 40 -45 47 7 4 12 2 12
-3 0 -6 5 -11 10 -11 6 0 10 7 10 15 0 9 -10 15 -26 15 -14 0 -23 4 -19 10 3
6 0 10 -8 10 -8 0 -29 3 -46 6 -21 5 -31 3 -31 -6z m43 -100 c-3 -11 -12 -20
-19 -20 -12 0 -12 4 -2 20 7 11 16 20 19 20 4 0 5 -9 2 -20z m65 -1 c-19 -13
-28 -11 -28 5 0 9 7 12 21 9 16 -4 17 -8 7 -14z"/>
<path d="M145 940 c-3 -5 1 -10 10 -10 9 0 13 5 10 10 -3 6 -8 10 -10 10 -2 0
-7 -4 -10 -10z"/>
<path d="M695 905 c14 -11 16 -18 8 -23 -29 -18 -8 -82 28 -82 18 0 20 6 17
58 l-3 57 -35 3 c-33 2 -34 2 -15 -13z"/>
<path d="M444 889 c-19 -22 -19 -22 4 -10 12 6 22 16 22 21 0 15 -5 12 -26
-11z"/>
<path d="M310 810 c-8 -5 -23 -7 -32 -4 -9 3 -25 1 -35 -4 -10 -6 -29 -15 -43
-21 -28 -12 -53 -27 -89 -53 -13 -10 -36 -18 -52 -18 -47 0 -59 -9 -59 -48 l0
-36 38 37 c47 46 64 48 26 3 -70 -81 -64 -48 -64 -371 l0 -295 350 0 c332 0
350 1 341 18 -6 12 -5 23 5 37 8 10 14 33 14 51 0 26 6 34 30 44 17 7 35 21
40 31 16 29 11 81 -9 103 -18 21 -18 23 0 96 10 41 19 98 19 126 l0 51 -103
-52 c-115 -57 -184 -75 -295 -75 -58 0 -80 -4 -95 -17 -19 -16 -20 -16 -14 -1
5 15 2 15 -26 6 -23 -9 -32 -8 -35 1 -3 9 -8 9 -20 -1 -9 -8 -13 -8 -9 -2 8
13 -47 38 -106 49 -21 4 -39 10 -41 14 -3 4 25 50 60 104 59 87 138 167 166
167 19 0 78 32 78 43 0 5 -9 2 -20 -8 -11 -10 -23 -15 -27 -12 -4 4 2 14 13
21 22 16 16 30 -6 16z m-40 -428 c0 -5 -7 -17 -16 -28 -8 -10 -14 -14 -11 -9
2 6 7 18 10 28 7 17 17 23 17 9z m-59 -59 c-12 -20 -14 -14 -5 12 4 9 9 14 11
11 3 -2 0 -13 -6 -23z"/>
<path d="M1065 761 c-22 -10 -49 -26 -60 -35 -20 -17 -20 -17 5 -11 40 11 110
46 110 56 0 13 -10 11 -55 -10z"/>
<path d="M1140 165 c0 -11 44 -44 52 -39 12 8 -21 44 -39 44 -7 0 -13 -2 -13
-5z"/>
</g>
</svg>
