<?xml version="1.0" standalone="no"?>
<!DOCTYPE svg PUBLIC "-//W3C//DTD SVG 20010904//EN"
 "http://www.w3.org/TR/2001/REC-SVG-20010904/DTD/svg10.dtd">
<svg version="1.0" xmlns="http://www.w3.org/2000/svg"
 width="201.000000pt" height="251.000000pt" viewBox="0 0 201.000000 251.000000"
 preserveAspectRatio="xMidYMid meet">

<g transform="translate(0.000000,251.000000) scale(0.100000,-0.100000)"
fill="#000000" stroke="none">
<path d="M1580 2492 c0 -10 5 -23 12 -30 9 -9 9 -15 -1 -24 -10 -11 -15 -10
-25 5 -15 19 -76 23 -93 6 -9 -9 -20 -4 -43 20 -36 36 -38 36 -60 16 -9 -8
-33 -17 -53 -19 -47 -6 -58 -13 -50 -31 6 -18 44 -20 40 -2 -1 6 4 12 12 12 8
0 16 -6 19 -12 2 -7 -4 -13 -13 -13 -9 0 -19 -8 -22 -18 -2 -10 -16 -23 -31
-30 -52 -22 -87 -47 -87 -62 0 -9 -11 -16 -27 -18 -31 -4 -37 -18 -10 -26 39
-11 351 -19 745 -17 110 1 117 2 117 21 0 18 -7 20 -56 20 -61 0 -94 13 -94
36 0 8 -16 22 -35 30 -36 15 -45 40 -23 62 21 21 2 23 -60 6 -90 -25 -107 -10
-77 69 6 15 1 17 -39 17 -38 0 -46 -3 -46 -18z m-106 -88 c5 -13 9 -14 21 -4
12 10 20 9 40 -4 26 -17 29 -24 25 -66 -2 -31 -16 -48 -30 -34 -6 6 -5 19 5
37 13 26 13 27 -11 27 -15 0 -27 -7 -30 -17 -10 -33 -21 -48 -36 -51 -12 -2
-14 4 -10 24 3 19 1 25 -7 20 -6 -4 -25 -2 -40 5 -24 11 -28 17 -20 31 10 18
55 47 75 48 7 0 15 -7 18 -16z m201 -84 c3 -5 -1 -10 -9 -10 -8 0 -18 5 -21
10 -3 6 1 10 9 10 8 0 18 -4 21 -10z"/>
<path d="M1215 2160 c19 -7 19 -8 2 -15 -14 -6 -15 -10 -6 -21 8 -10 8 -14 0
-14 -6 0 -14 0 -18 -1 -5 0 -14 -11 -21 -25 -7 -13 -17 -24 -22 -24 -5 0 -7
-7 -4 -15 8 -20 -6 -19 -20 1 -10 13 -12 13 -12 -5 0 -11 4 -17 8 -15 4 3 8
-4 8 -16 0 -31 -82 -66 -119 -51 -21 9 -23 9 -10 -1 9 -7 14 -19 12 -25 -6
-17 0 -16 44 2 50 21 56 19 27 -12 -14 -15 -22 -33 -19 -41 3 -7 5 -19 5 -25
0 -8 4 -7 12 1 17 17 29 15 22 -3 -5 -12 -2 -14 12 -8 17 6 17 5 6 -9 -12 -14
-10 -17 13 -20 l27 -3 -24 -26 c-26 -29 -50 -41 -64 -31 -5 4 -18 24 -29 45
-11 20 -23 37 -27 37 -11 0 -21 -47 -15 -72 3 -12 2 -29 -4 -39 -6 -11 -5 -20
1 -24 5 -3 10 -14 10 -23 0 -12 -3 -13 -12 -4 -7 7 -15 12 -20 12 -12 0 -3
-169 10 -182 7 -7 12 -20 12 -30 0 -10 6 -18 14 -18 8 0 18 -5 22 -12 5 -8 0
-9 -15 -5 -18 4 -20 3 -10 -9 6 -8 9 -18 5 -21 -4 -4 -11 -2 -15 6 -5 7 -17
11 -27 9 -15 -2 -20 6 -29 45 -11 53 -25 53 -25 1 0 -23 8 -41 27 -59 36 -33
57 -32 90 6 24 26 32 30 63 24 72 -13 75 -15 44 -36 -25 -16 -26 -19 -9 -19
45 0 93 22 132 60 23 22 46 40 51 40 19 0 42 38 70 115 42 116 45 131 25 150
-13 14 -14 21 -5 35 7 11 8 30 4 47 -4 15 -5 46 -2 68 3 23 1 51 -6 65 -7 14
-24 51 -38 82 -21 43 -38 63 -75 87 -26 17 -59 31 -72 30 -22 0 -22 -1 -4 -9z
m-25 -180 c0 -13 -12 -28 -30 -38 -16 -9 -30 -22 -30 -28 0 -6 -7 -17 -15 -24
-13 -11 -18 -11 -28 0 -10 10 -9 11 2 5 11 -6 13 -4 8 8 -4 10 -2 14 7 11 8
-3 12 5 12 22 -1 20 7 31 34 45 42 23 40 23 40 -1z m164 -205 c-22 -17 -34
-19 -34 -6 0 5 8 12 18 14 32 9 36 7 16 -8z m-174 -20 c-25 -26 -40 -32 -40
-15 0 6 5 10 11 10 6 0 17 7 25 15 26 25 29 17 4 -10z m160 -64 c0 -40 -46
-63 -80 -41 -12 8 -8 10 15 11 27 2 27 2 5 6 -55 8 -71 14 -65 23 4 6 11 8 16
5 5 -4 9 -3 9 2 0 4 23 9 50 10 43 3 50 0 50 -16z m10 -69 c0 -15 -11 -21 -27
-15 -12 5 -12 7 -1 14 17 11 28 11 28 1z"/>
<path d="M1902 2114 c-13 -9 -21 -22 -18 -29 2 -7 -2 -16 -10 -19 -11 -4 -13
-15 -9 -39 6 -30 4 -33 -29 -45 -38 -14 -106 -92 -106 -121 0 -9 28 -38 61
-66 l60 -50 -5 -67 c-6 -77 -5 -77 91 -84 52 -3 62 -1 66 14 2 9 5 92 6 184
l1 167 -31 28 c-27 25 -30 32 -25 66 6 36 -6 77 -22 77 -4 0 -18 -7 -30 -16z
m-82 -254 c0 -33 -19 -40 -40 -15 -16 20 -5 45 20 45 16 0 20 -7 20 -30z m90
-60 c0 -10 -41 -30 -61 -30 -22 0 -6 29 19 33 15 2 30 5 35 6 4 0 7 -4 7 -9z"/>
<path d="M880 1933 c0 -21 3 -24 9 -14 5 8 7 20 4 28 -8 21 -13 15 -13 -14z"/>
<path d="M951 1953 c5 -30 -3 -51 -18 -49 -10 0 -17 -5 -15 -12 1 -7 -5 -12
-15 -10 -14 2 -18 -5 -20 -32 -1 -19 1 -27 3 -17 3 9 10 17 14 17 6 0 6 -10 1
-23 -11 -29 0 -50 22 -41 10 4 17 1 17 -6 0 -10 3 -10 15 0 12 10 15 10 15 -3
0 -8 -7 -17 -15 -21 -23 -9 -18 -28 8 -24 24 3 23 0 12 122 -3 32 -1 63 4 70
7 8 4 16 -10 24 -10 7 -19 9 -18 5z"/>
<path d="M795 1521 c-84 -29 -169 -70 -148 -71 6 0 23 4 37 10 14 5 26 7 26 5
0 -7 -73 -43 -95 -47 -21 -3 -74 -56 -75 -73 -1 -26 -17 -37 -38 -26 -37 20
-78 -4 -107 -62 -14 -28 -25 -57 -25 -63 0 -7 -8 -19 -18 -26 -20 -13 -92
-142 -92 -163 0 -6 -9 -21 -21 -34 -16 -17 -18 -25 -9 -35 6 -8 9 -20 8 -27
-2 -8 2 -13 9 -12 6 1 17 -4 23 -12 7 -8 18 -15 24 -15 18 0 77 -46 69 -53 -3
-4 -4 -7 0 -7 11 0 45 41 99 121 29 43 58 79 65 79 8 0 10 11 6 33 -7 47 22
100 96 170 34 32 61 62 61 67 0 5 5 12 12 16 7 5 8 3 3 -6 -5 -9 -4 -11 4 -6
6 4 9 12 5 17 -3 6 4 21 17 35 12 13 18 24 14 24 -5 0 14 24 42 53 28 28 60
71 71 95 11 23 19 42 19 42 -1 0 -38 -13 -82 -29z m-75 -95 c0 -8 -100 -66
-113 -66 -6 0 15 16 48 35 64 37 65 37 65 31z"/>
<path d="M1364 1514 c-6 -3 -9 -18 -6 -34 3 -19 -3 -39 -18 -60 -25 -35 -24
-35 41 -117 85 -106 108 -146 153 -258 22 -56 25 -76 17 -97 -5 -14 -7 -35 -4
-46 2 -11 0 -23 -6 -26 -5 -4 -8 -13 -4 -21 3 -8 0 -15 -6 -15 -6 0 -8 -6 -5
-14 3 -8 0 -17 -5 -21 -6 -3 -8 -11 -5 -17 4 -6 0 -14 -7 -19 -8 -5 -9 -9 -3
-9 7 0 9 -15 4 -45 -4 -25 -6 -45 -5 -45 15 0 62 34 72 52 l12 23 1 -23 c0
-12 4 -30 9 -40 10 -20 46 -107 70 -170 l16 -42 -43 -40 c-45 -42 -51 -53 -27
-44 8 4 27 3 42 -1 20 -5 24 -8 13 -15 -8 -5 -18 -6 -22 -4 -5 3 -7 0 -6 -8 2
-7 -2 -12 -8 -11 -6 1 -17 -10 -25 -25 -18 -35 -35 -53 -43 -45 -3 3 -8 -2
-12 -11 -3 -9 -12 -16 -20 -16 -8 0 -14 -4 -14 -10 0 -5 -7 -7 -15 -4 -8 4
-15 1 -15 -5 0 -6 -7 -8 -17 -4 -12 5 -14 3 -8 -7 6 -10 4 -12 -8 -7 -10 4
-17 2 -17 -4 0 -7 -11 -9 -25 -7 -14 3 -30 -1 -36 -8 -6 -8 -9 -14 -6 -14 4 0
-5 -22 -19 -49 -13 -28 -24 -53 -23 -58 4 -15 -13 -43 -23 -37 -5 3 -5 11 2
19 8 9 7 14 -4 18 -14 5 -31 -18 -27 -36 1 -5 -4 -7 -11 -5 -12 4 -38 -14 -38
-26 0 -3 40 -6 90 -6 76 0 88 2 84 15 -5 11 -2 13 12 8 12 -4 15 -3 10 5 -8
13 4 15 28 6 9 -3 13 -11 10 -18 -3 -6 1 -3 9 7 9 10 17 17 19 15 12 -10 250
120 265 145 4 7 36 37 71 66 34 30 68 66 76 82 18 36 16 381 -2 387 -7 2 -12
8 -12 13 0 6 5 7 10 4 18 -11 11 37 -7 52 -10 8 -13 12 -8 10 6 -3 11 8 12 24
2 26 -1 29 -27 29 -17 0 -76 -7 -132 -15 -56 -9 -107 -14 -113 -11 -6 2 -12
24 -13 49 -2 37 1 48 21 63 12 11 43 45 67 77 43 58 91 93 110 82 17 -11 11
-22 -18 -34 -51 -21 -79 -101 -52 -151 13 -25 61 -39 109 -33 55 8 42 23 -20
23 -32 0 -51 5 -55 13 -2 7 12 39 33 70 35 53 39 56 51 40 13 -17 14 -17 9 2
-3 11 -9 39 -12 63 l-7 42 69 0 c76 0 115 14 67 23 -16 3 -56 9 -89 12 l-61 6
-22 49 c-28 60 -28 60 7 60 20 0 30 6 34 20 3 11 1 20 -4 20 -5 0 -9 -4 -9
-10 0 -5 -5 -10 -10 -10 -7 0 -7 7 0 20 6 11 15 18 19 15 5 -2 14 2 21 10 7 8
23 15 36 15 13 0 24 4 24 9 0 6 -12 6 -30 1 -16 -5 -30 -7 -30 -4 0 2 -22 -7
-50 -21 -27 -14 -50 -30 -50 -35 0 -5 7 -7 15 -4 13 5 13 2 -2 -24 -15 -27
-20 -29 -47 -21 -29 9 -61 6 -110 -8 -17 -5 -18 -1 -12 28 9 46 23 51 64 23
41 -28 82 -32 82 -8 0 27 -71 85 -100 82 -17 -2 -24 -8 -22 -20 1 -9 -3 -20
-9 -24 -8 -5 -10 4 -7 29 l4 35 -120 59 c-135 66 -127 63 -142 57z m420 -710
c3 -8 2 -12 -4 -9 -6 3 -10 2 -10 -4 0 -6 -7 -8 -15 -5 -12 5 -13 10 -4 20 15
18 25 18 33 -2z m-117 -40 c-3 -3 -12 -4 -19 -1 -8 3 -5 6 6 6 11 1 17 -2 13
-5z m-130 -56 c-3 -8 -6 -5 -6 6 -1 11 2 17 5 13 3 -3 4 -12 1 -19z m-144
-620 c-21 -23 -33 -23 -33 0 0 27 20 43 35 29 11 -10 10 -15 -2 -29z"/>
<path d="M548 1433 c7 -3 16 -2 19 1 4 3 -2 6 -13 5 -11 0 -14 -3 -6 -6z"/>
<path d="M819 1413 c-13 -16 -12 -17 4 -4 9 7 17 15 17 17 0 8 -8 3 -21 -13z"/>
<path d="M1060 1395 c-11 -13 -8 -15 19 -15 29 0 31 2 17 15 -8 8 -17 15 -19
15 -3 0 -10 -7 -17 -15z"/>
<path d="M1255 1390 c3 -5 8 -10 11 -10 2 0 4 5 4 10 0 6 -5 10 -11 10 -5 0
-7 -4 -4 -10z"/>
<path d="M1215 1370 c-4 -6 -11 -8 -16 -5 -5 4 -9 1 -9 -4 0 -15 21 -13 44 4
17 13 17 15 4 15 -9 0 -20 -5 -23 -10z"/>
<path d="M950 1366 c0 -2 7 -9 15 -16 13 -11 14 -10 9 4 -5 14 -24 23 -24 12z"/>
<path d="M1160 1349 c0 -5 -4 -7 -10 -4 -5 3 -10 1 -10 -4 0 -16 16 -13 30 4
9 10 9 15 1 15 -6 0 -11 -5 -11 -11z"/>
<path d="M1030 1340 c0 -5 7 -10 15 -10 8 0 15 5 15 10 0 6 -7 10 -15 10 -8 0
-15 -4 -15 -10z"/>
<path d="M1070 1340 c0 -5 11 -10 25 -10 14 0 25 5 25 10 0 6 -11 10 -25 10
-14 0 -25 -4 -25 -10z"/>
<path d="M1835 1230 c-3 -5 1 -10 9 -10 9 0 16 5 16 10 0 6 -4 10 -9 10 -6 0
-13 -4 -16 -10z"/>
<path d="M716 1102 c-4 -7 -12 -10 -17 -7 -5 4 -9 -4 -9 -16 0 -17 3 -19 14
-10 11 9 18 8 30 -5 10 -9 20 -14 23 -10 4 3 0 12 -9 19 -9 6 -18 19 -20 27
-3 10 -6 11 -12 2z"/>
<path d="M756 1083 c7 -8 14 -20 14 -27 0 -6 15 -13 33 -14 20 -1 27 1 19 6
-8 5 -10 16 -6 27 5 12 4 16 -4 11 -6 -3 -13 -2 -16 3 -3 4 -17 9 -30 9 -22 0
-23 -2 -10 -15z m44 -15 c0 -6 -6 -5 -15 2 -8 7 -15 14 -15 16 0 2 7 1 15 -2
8 -4 15 -11 15 -16z"/>
<path d="M1190 1082 c0 -7 14 -15 30 -18 34 -7 34 -8 19 -36 -11 -20 -12 -20
-30 8 -10 16 -19 24 -19 19 0 -6 7 -20 15 -32 8 -12 12 -28 9 -37 -5 -13 1
-16 31 -16 23 0 34 4 29 11 -3 6 7 25 22 42 l29 31 -39 -32 c-22 -17 -41 -30
-43 -29 -1 2 1 13 4 26 4 15 21 29 49 42 24 10 44 22 44 27 0 5 -34 8 -75 8
-54 -1 -75 -4 -75 -14z"/>
<path d="M638 1073 c7 -3 16 -2 19 1 4 3 -2 6 -13 5 -11 0 -14 -3 -6 -6z"/>
<path d="M1832 994 c-14 -29 -7 -48 8 -24 8 12 10 9 10 -10 1 -22 2 -23 11 -8
7 13 6 25 -4 43 l-13 26 -12 -27z"/>
<path d="M250 880 c0 -5 5 -10 11 -10 5 0 7 5 4 10 -3 6 -8 10 -11 10 -2 0 -4
-4 -4 -10z"/>
<path d="M611 844 c0 -11 3 -14 6 -6 3 7 2 16 -1 19 -3 4 -6 -2 -5 -13z"/>
<path d="M750 844 c-41 -14 -90 -38 -90 -45 0 -4 6 -10 13 -12 8 -4 7 -6 -3
-6 -8 -1 -21 8 -28 19 -16 26 -32 26 -32 -1 0 -11 3 -18 8 -16 4 3 7 -13 8
-36 1 -77 86 -121 304 -158 96 -16 179 -23 288 -24 148 0 153 0 132 17 -18 15
-42 18 -128 18 -141 0 -357 26 -405 50 -26 12 -34 13 -26 4 26 -32 -11 -12
-40 21 -34 40 -38 50 -16 41 12 -4 14 1 9 32 -5 34 -3 39 20 50 41 18 126 25
176 13 58 -13 62 -7 11 18 -30 16 -58 21 -113 20 -40 0 -80 -3 -88 -5z"/>
<path d="M159 812 c-9 -9 -22 -28 -29 -42 -12 -22 -12 -24 2 -12 9 7 23 10 32
6 28 -11 46 12 32 41 -13 29 -16 29 -37 7z"/>
<path d="M210 819 c0 -5 5 -7 10 -4 6 3 10 8 10 11 0 2 -4 4 -10 4 -5 0 -10
-5 -10 -11z"/>
<path d="M890 744 c-47 -18 -89 -35 -95 -37 -5 -3 -1 -8 10 -13 11 -4 25 -14
30 -21 16 -21 148 -42 300 -49 l140 -6 -70 45 c-38 24 -94 61 -124 81 -30 21
-64 36 -80 35 -14 -1 -64 -16 -111 -35z m185 -31 c19 -13 19 -13 -5 -13 -14 0
-35 -3 -47 -6 -18 -5 -23 -2 -23 11 0 14 -6 16 -30 12 -16 -4 -37 -4 -47 0
-12 5 -3 11 33 24 52 18 52 18 119 -28z"/>
<path d="M98 723 c-9 -10 -19 -34 -23 -53 -4 -19 -13 -42 -20 -50 -11 -13 -35
-82 -35 -101 0 -3 7 -6 15 -6 13 0 33 58 27 79 -1 4 6 4 15 1 12 -5 15 -2 10
9 -3 9 3 42 15 73 22 61 20 75 -4 48z"/>
<path d="M385 730 c-3 -6 1 -7 9 -4 18 7 21 14 7 14 -6 0 -13 -4 -16 -10z"/>
<path d="M607 695 c-4 -11 -10 -26 -13 -34 -5 -10 -1 -13 15 -8 17 4 21 2 17
-8 -3 -8 -1 -17 4 -20 13 -8 13 28 1 41 -5 5 -11 18 -13 29 l-4 20 -7 -20z"/>
<path d="M204 672 c-19 -59 -44 -75 -44 -29 -1 22 -1 22 -15 3 -17 -22 -21
-71 -5 -61 6 3 10 4 10 1 0 -3 -13 -12 -29 -20 -21 -11 -31 -12 -40 -3 -8 8
-11 7 -11 -7 0 -10 4 -14 12 -10 8 5 9 2 4 -11 -5 -14 -3 -15 6 -7 9 7 16 6
25 -3 6 -7 11 -14 10 -16 -1 -2 25 23 58 56 33 33 60 64 60 70 1 5 6 19 13 31
10 19 9 21 -19 22 -20 0 -32 -5 -35 -16z m-37 -109 c-21 -21 -29 -25 -39 -15
-12 12 -9 13 17 12 3 -1 13 6 21 15 9 8 18 15 22 15 4 0 -6 -12 -21 -27z"/>
<path d="M1461 633 c-1 -6 -4 -20 -7 -30 -5 -17 -5 -17 6 0 6 10 9 23 6 30 -3
9 -5 9 -5 0z"/>
<path d="M660 613 c0 -8 -5 -11 -12 -8 -7 4 -2 -3 11 -14 13 -12 29 -21 36
-21 7 0 15 -6 18 -14 6 -14 99 -46 135 -46 12 0 24 5 28 12 4 6 3 8 -4 4 -6
-3 -13 3 -17 14 -8 26 -29 26 -22 0 3 -13 0 -20 -10 -20 -11 0 -13 7 -8 28 5
27 4 29 -27 29 -63 0 -88 7 -88 24 0 9 -9 19 -20 22 -13 3 -20 0 -20 -10z
m113 -52 c18 -3 4 -18 -15 -16 -36 4 -38 5 -38 14 0 7 19 8 53 2z"/>
<path d="M619 570 c0 -19 -2 -63 -4 -97 -2 -35 1 -66 6 -69 5 -3 9 1 10 8 2
26 -2 83 -8 102 -3 12 -1 16 6 12 14 -9 15 43 1 64 -7 11 -10 6 -11 -20z"/>
<path d="M1471 563 c-16 -19 -25 -22 -31 -14 -5 9 -9 5 -13 -10 -3 -13 -2 -28
4 -35 7 -8 6 -15 -2 -20 -8 -4 -9 -3 -5 4 4 7 2 12 -3 12 -10 0 -16 -24 -8
-33 1 -2 -6 -12 -16 -21 -10 -10 -15 -21 -12 -24 3 -3 28 16 55 43 27 27 47
51 44 54 -3 3 -8 0 -13 -7 -5 -9 -12 -8 -27 3 -12 9 -13 13 -4 11 8 -3 27 10
43 30 33 39 24 45 -12 7z"/>
<path d="M294 539 c-19 -21 -19 -21 9 -8 15 7 27 16 27 21 0 14 -16 9 -36 -13z"/>
<path d="M910 520 c0 -13 6 -16 23 -13 13 3 24 11 24 18 0 7 -11 13 -24 13
-15 0 -23 -6 -23 -18z"/>
<path d="M1304 531 c-3 -3 -51 -8 -107 -11 -99 -5 -102 -6 -105 -30 -3 -19 -1
-22 10 -13 15 12 78 15 78 4 0 -4 16 -8 35 -9 20 -1 41 -5 48 -9 7 -4 7 0 -2
10 -8 10 -9 17 -3 17 6 0 13 -4 16 -9 13 -21 86 12 86 40 0 9 -48 18 -56 10z
m26 -31 c-20 -13 -57 -13 -44 -1 10 10 46 19 54 14 2 -2 -2 -8 -10 -13z m-172
3 c-10 -2 -26 -2 -35 0 -10 3 -2 5 17 5 19 0 27 -2 18 -5z"/>
<path d="M57 517 c-4 -10 -10 -16 -15 -13 -14 8 -29 -8 -36 -38 -7 -27 -6 -28
10 -15 16 12 17 12 11 -4 -4 -12 -3 -16 4 -11 6 3 9 15 6 25 -3 12 0 19 10 19
9 0 13 -6 9 -15 -7 -20 1 -19 26 5 18 16 19 20 6 20 -10 0 -18 10 -20 23 -3
19 -4 20 -11 4z"/>
<path d="M980 516 c0 -8 -8 -17 -17 -19 -10 -2 -4 -5 12 -5 17 0 41 -3 55 -6
21 -5 22 -5 5 3 -19 9 -19 10 3 10 14 1 22 7 22 18 0 13 -3 14 -12 5 -7 -7
-23 -11 -37 -11 -25 1 -24 2 4 9 l30 8 -32 1 c-23 1 -33 -4 -33 -13z"/>
<path d="M1370 494 c-29 -31 -60 -44 -102 -44 -17 0 -29 -2 -26 -5 3 -3 -3
-34 -14 -68 -35 -107 -38 -127 -21 -127 20 0 82 30 90 43 3 6 1 7 -5 3 -15 -9
-15 -1 -1 25 5 11 14 17 19 14 6 -3 7 0 5 7 -3 8 1 33 9 55 11 31 12 43 3 47
-7 2 3 2 21 -1 18 -3 32 -2 30 3 -1 5 3 19 11 32 19 35 9 44 -19 16z"/>
<path d="M263 492 c-3 -7 -3 -16 1 -19 3 -4 6 1 6 11 0 9 4 15 8 12 4 -2 14
-1 22 4 11 7 9 9 -9 7 -13 -1 -26 -7 -28 -15z"/>
<path d="M735 468 c-3 -18 -8 -61 -9 -96 -3 -52 -1 -64 14 -72 28 -15 40 -12
40 10 0 12 -7 20 -16 20 -17 0 -17 7 2 133 5 29 2 37 -10 37 -9 0 -17 -12 -21
-32z"/>
<path d="M901 451 c-10 -17 -35 -100 -48 -158 -6 -28 14 -31 33 -5 12 16 13
15 14 -5 0 -16 6 -23 20 -23 18 0 20 7 22 80 1 44 2 90 2 102 1 29 -29 36 -43
9z"/>
<path d="M1475 460 c-4 -6 -11 -8 -16 -5 -5 4 -9 1 -9 -6 0 -7 -7 -21 -17 -31
-9 -10 -14 -20 -12 -21 2 -2 19 14 38 35 18 21 31 38 28 38 -3 0 -9 -5 -12
-10z"/>
<path d="M650 442 c0 -11 9 -27 20 -37 19 -18 20 -17 20 6 0 25 -16 49 -32 49
-4 0 -8 -8 -8 -18z"/>
<path d="M567 415 c-24 -50 -20 -58 4 -12 11 22 19 41 17 43 -3 2 -12 -12 -21
-31z"/>
<path d="M1040 358 c-11 -51 -23 -99 -25 -105 -3 -8 4 -12 17 -9 14 2 26 15
34 37 l12 34 1 -37 c1 -29 5 -38 19 -38 13 0 24 21 45 90 33 108 33 112 5 108
-16 -2 -25 -12 -29 -33 l-7 -30 -1 27 c-1 23 -24 48 -45 48 -2 0 -14 -42 -26
-92z"/>
<path d="M3 415 c0 -7 6 -11 14 -8 16 6 16 10 0 16 -8 3 -14 -1 -14 -8z"/>
<path d="M1345 410 c-10 -11 -13 -20 -7 -20 6 0 16 9 22 20 6 11 9 20 7 20 -2
0 -12 -9 -22 -20z"/>
<path d="M640 403 c0 -13 29 -38 35 -31 3 3 -4 13 -15 23 -11 10 -20 13 -20 8z"/>
<path d="M1395 380 c-4 -6 -12 -7 -18 -4 -7 4 -9 3 -4 -1 4 -5 -1 -18 -10 -29
-10 -12 -3 -8 15 8 17 17 32 31 32 33 0 7 -9 2 -15 -7z"/>
<path d="M527 325 c-9 -19 -15 -35 -12 -35 7 0 37 61 33 66 -3 2 -12 -12 -21
-31z"/>
<path d="M1325 320 c-4 -6 -11 -7 -17 -4 -7 4 -8 2 -4 -5 6 -9 11 -9 22 0 14
11 18 19 10 19 -3 0 -8 -5 -11 -10z"/>
<path d="M1449 263 c-13 -15 -12 -15 9 -4 23 12 28 21 13 21 -5 0 -15 -7 -22
-17z"/>
<path d="M481 233 c-10 -26 -10 -27 4 -9 8 11 15 23 15 28 0 15 -7 8 -19 -19z"/>
<path d="M393 238 c-20 -26 -23 -50 -8 -64 8 -9 15 -11 15 -5 0 5 -5 13 -11
16 -7 5 -5 15 6 32 17 26 15 43 -2 21z"/>
<path d="M1213 225 c-37 -16 -45 -30 -11 -19 19 6 20 5 8 -7 -16 -15 -60 -30
-150 -51 -31 -7 -47 -14 -36 -16 15 -3 16 -6 5 -14 -10 -6 -6 -7 11 -2 14 4
42 8 62 9 21 0 40 4 44 8 4 4 21 7 37 7 22 0 28 -4 23 -16 -3 -9 -6 -20 -6
-25 0 -6 -4 -7 -10 -4 -5 3 -11 1 -11 -4 -1 -6 -2 -14 -3 -18 0 -5 -11 -23
-24 -41 l-23 -32 41 0 40 0 -15 24 c-19 29 -10 54 30 80 14 9 25 21 25 27 0 7
-6 6 -17 -2 -14 -12 -16 -12 -11 1 3 8 15 14 27 12 19 -2 21 1 15 20 -4 13 -7
29 -7 36 0 6 -7 12 -16 12 -14 0 -14 2 -1 10 25 16 7 19 -27 5z m19 -67 c-14
-15 -22 -18 -22 -9 0 15 32 43 39 35 3 -3 -5 -14 -17 -26z"/>
<path d="M1148 193 c7 -3 16 -2 19 1 4 3 -2 6 -13 5 -11 0 -14 -3 -6 -6z"/>
<path d="M1108 183 c7 -3 16 -2 19 1 4 3 -2 6 -13 5 -11 0 -14 -3 -6 -6z"/>
<path d="M435 160 c-3 -5 -1 -10 4 -10 6 0 11 5 11 10 0 6 -2 10 -4 10 -3 0
-8 -4 -11 -10z"/>
<path d="M680 161 c0 -19 29 -58 56 -76 21 -13 19 -8 -12 32 -45 60 -44 59
-44 44z"/>
<path d="M885 150 c-4 -6 7 -10 27 -10 25 0 29 3 18 10 -19 13 -37 13 -45 0z"/>
<path d="M601 113 c-1 -34 2 -41 14 -37 8 4 15 1 15 -5 0 -6 -4 -11 -10 -11
-5 0 -1 -13 8 -29 11 -19 19 -26 24 -18 4 6 -1 20 -10 31 -16 18 -16 19 0 13
19 -7 15 12 -9 48 -10 14 -13 16 -14 5 -1 -8 -5 -1 -9 15 -7 28 -8 28 -9 -12z"/>
<path d="M644 129 c-3 -6 -2 -15 3 -20 5 -5 9 -1 9 11 0 23 -2 24 -12 9z"/>
<path d="M413 118 c-17 -22 -25 -44 -9 -24 8 10 19 15 25 11 7 -3 8 0 5 9 -7
19 -9 19 -21 4z"/>
<path d="M504 110 c0 -19 16 -27 29 -13 7 6 -11 33 -22 33 -4 0 -7 -9 -7 -20z"/>
<path d="M1048 93 c7 -3 16 -2 19 1 4 3 -2 6 -13 5 -11 0 -14 -3 -6 -6z"/>
<path d="M1120 64 c-24 -13 -24 -14 -4 -14 12 0 24 7 28 15 3 8 4 15 3 14 -1
-1 -13 -7 -27 -15z"/>
</g>
</svg>
