<?xml version="1.0" standalone="no"?>
<!DOCTYPE svg PUBLIC "-//W3C//DTD SVG 20010904//EN"
 "http://www.w3.org/TR/2001/REC-SVG-20010904/DTD/svg10.dtd">
<svg version="1.0" xmlns="http://www.w3.org/2000/svg"
 width="605.000000pt" height="448.000000pt" viewBox="0 0 605.000000 448.000000"
 preserveAspectRatio="xMidYMid meet">

<g transform="translate(0.000000,448.000000) scale(0.100000,-0.100000)"
fill="#000000" stroke="none">
<path d="M2942 3716 c-34 -11 -66 -26 -70 -31 -4 -6 -26 -16 -48 -23 -32 -9
-46 -20 -58 -46 -9 -19 -20 -36 -25 -38 -6 -2 -31 -32 -58 -68 -29 -39 -57
-66 -70 -68 -12 -2 -24 -10 -27 -18 -4 -12 -1 -14 14 -9 25 8 25 7 -5 -53 -25
-51 -33 -116 -15 -127 19 -12 11 -37 -9 -30 -11 3 -22 1 -26 -5 -4 -7 2 -14
14 -17 16 -4 21 -13 21 -39 0 -18 6 -37 13 -41 10 -7 47 -98 47 -118 0 -4 -6
-5 -13 -2 -14 5 -15 -23 -3 -62 6 -17 11 -20 19 -12 9 9 8 14 -3 21 -8 5 -11
13 -6 17 4 4 13 0 20 -10 7 -9 17 -17 22 -17 17 0 75 -60 69 -70 -3 -5 0 -10
8 -10 21 0 25 84 13 244 -10 122 -9 130 11 165 29 51 65 75 98 67 34 -9 25
-22 -21 -31 -37 -6 -64 -25 -64 -43 0 -9 9 -12 88 -28 39 -8 66 12 88 64 11
28 16 32 33 23 12 -7 21 -26 25 -56 4 -25 11 -45 16 -45 4 0 6 -10 2 -22 -3
-14 -2 -19 6 -14 7 4 12 3 12 -2 0 -10 -80 -39 -94 -34 -18 6 -36 -20 -26 -38
6 -11 5 -21 -2 -28 -9 -9 -5 -12 17 -12 23 0 27 -3 15 -10 -8 -5 -25 -10 -37
-10 -26 0 -40 48 -24 79 21 38 11 35 -33 -10 -44 -46 -44 -47 -35 -90 12 -53
23 -66 42 -51 8 7 17 8 23 2 12 -12 86 -1 78 11 -3 5 -14 9 -25 9 -10 0 -19 4
-19 9 0 9 90 19 110 13 20 -7 9 -22 -16 -22 -17 0 -28 -6 -31 -20 -4 -14 -14
-20 -33 -20 -20 0 -29 -6 -33 -22 -4 -13 -1 -26 6 -30 7 -4 8 -8 2 -8 -20 -1
21 -20 43 -20 27 0 28 -11 3 -27 -35 -22 -81 -7 -135 44 -28 26 -54 53 -58 58
-12 16 -10 -13 3 -38 6 -12 19 -31 29 -42 22 -25 34 -99 20 -125 -7 -13 -6
-20 3 -23 9 -4 9 -6 -1 -6 -7 -1 -10 -5 -7 -11 13 -21 -20 -9 -48 18 l-30 27
18 -27 c9 -15 40 -39 69 -52 129 -61 310 -57 391 8 29 23 30 26 27 100 l-3 76
29 -17 c32 -18 59 -13 69 14 3 10 14 27 23 38 25 30 43 82 38 110 -3 14 1 30
8 36 7 6 10 17 7 25 -3 9 0 12 8 9 19 -7 24 121 7 161 -6 16 -12 36 -13 46 -1
9 -5 23 -8 32 -3 8 -2 18 3 21 6 4 10 11 10 16 0 6 -5 7 -10 4 -15 -9 -40 14
-40 36 0 11 -5 19 -10 19 -7 0 -8 13 -4 35 5 28 3 35 -10 35 -9 0 -19 7 -22
15 -4 8 -10 12 -16 9 -5 -3 -8 2 -6 12 5 33 -62 114 -117 141 -27 13 -84 42
-125 63 -41 22 -77 39 -80 38 -3 0 -33 -10 -68 -22z m126 -203 c38 -25 44 -36
25 -50 -21 -16 -53 -17 -53 -1 0 9 -3 9 -12 0 -21 -21 8 -41 57 -37 33 3 47
-1 61 -16 23 -26 11 -34 -58 -42 -28 -4 -58 -13 -68 -22 -21 -19 -41 -19 -66
0 -11 9 -42 14 -78 15 l-59 0 27 33 c15 17 38 56 51 85 l25 52 60 0 c40 0 70
-6 88 -17z m77 -203 c-3 -5 -13 -10 -21 -10 -8 0 -14 5 -14 10 0 6 9 10 21 10
11 0 17 -4 14 -10z m10 -111 c53 -3 65 -11 65 -45 0 -25 -40 -49 -68 -40 -23
8 -82 70 -82 87 0 6 8 8 18 5 9 -3 40 -6 67 -7z m-420 -159 c3 -5 1 -10 -4
-10 -6 0 -11 5 -11 10 0 6 2 10 4 10 3 0 8 -4 11 -10z m617 -192 c-7 -7 -12
-8 -12 -2 0 6 3 14 7 17 3 4 9 5 12 2 2 -3 -1 -11 -7 -17z"/>
<path d="M2397 3453 c-17 -17 -2 -23 53 -23 49 0 58 3 54 15 -4 10 -21 15 -53
15 -26 0 -51 -3 -54 -7z"/>
<path d="M5814 3449 c-9 -16 12 -33 31 -25 14 5 15 9 5 21 -15 18 -26 19 -36
4z"/>
<path d="M2062 3430 c-10 -16 -10 -20 0 -20 18 1 49 26 41 33 -12 13 -28 7
-41 -13z"/>
<path d="M4210 3435 c0 -8 9 -15 20 -15 11 0 20 2 20 5 0 2 -9 9 -20 15 -16 9
-20 8 -20 -5z"/>
<path d="M5220 3440 c0 -5 5 -10 11 -10 5 0 7 5 4 10 -3 6 -8 10 -11 10 -2 0
-4 -4 -4 -10z"/>
<path d="M5010 3430 c0 -5 5 -10 10 -10 6 0 10 5 10 10 0 6 -4 10 -10 10 -5 0
-10 -4 -10 -10z"/>
<path d="M1960 3404 c0 -8 5 -12 10 -9 6 3 10 10 10 16 0 5 -4 9 -10 9 -5 0
-10 -7 -10 -16z"/>
<path d="M1985 3356 c-14 -10 -15 -15 -6 -21 8 -4 19 -1 28 8 20 19 1 30 -22
13z"/>
<path d="M1803 3303 c-13 -8 -23 -22 -23 -29 0 -8 -5 -23 -12 -34 -7 -10 -9
-22 -6 -25 11 -12 48 15 48 35 0 10 4 21 9 24 11 7 22 46 13 45 -4 0 -17 -7
-29 -16z"/>
<path d="M1876 3305 c-11 -8 -17 -18 -13 -21 10 -11 37 4 37 21 0 18 0 18 -24
0z"/>
<path d="M1960 3300 l-25 -21 25 7 c31 8 33 10 28 24 -2 8 -13 4 -28 -10z"/>
<path d="M1671 3259 c-47 -35 -44 -49 9 -42 26 3 40 12 52 33 29 50 1 54 -61
9z"/>
<path d="M2040 3270 c0 -5 5 -10 10 -10 6 0 10 5 10 10 0 6 -4 10 -10 10 -5 0
-10 -4 -10 -10z"/>
<path d="M2355 3270 c-4 -7 3 -8 22 -4 38 9 42 14 10 14 -14 0 -29 -5 -32 -10z"/>
<path d="M1605 3250 c-27 -30 -12 -34 15 -5 13 14 19 25 13 25 -5 0 -18 -9
-28 -20z"/>
<path d="M1951 3243 c-8 -16 -18 -36 -23 -47 -7 -13 -6 -21 3 -27 18 -11 31 3
34 35 4 32 13 46 31 46 8 0 14 5 14 10 0 6 -10 10 -23 10 -16 0 -28 -9 -36
-27z"/>
<path d="M4415 3260 c-3 -5 2 -13 12 -18 14 -9 15 -13 4 -26 -12 -14 -11 -16
7 -16 11 0 25 7 33 16 9 11 22 14 41 10 34 -7 36 4 6 24 -26 16 -95 23 -103
10z"/>
<path d="M1860 3239 c-7 -11 -9 -23 -7 -26 9 -9 47 17 47 32 0 22 -28 18 -40
-6z"/>
<path d="M3610 3250 c-12 -8 -11 -10 8 -10 12 0 22 5 22 10 0 13 -11 13 -30 0z"/>
<path d="M3800 3235 c0 -8 7 -15 15 -15 8 0 15 7 15 15 0 8 -7 15 -15 15 -8 0
-15 -7 -15 -15z"/>
<path d="M4115 3240 c3 -5 17 -10 31 -10 13 0 24 5 24 10 0 6 -14 10 -31 10
-17 0 -28 -4 -24 -10z"/>
<path d="M5390 3240 c0 -5 -12 -10 -26 -10 -14 0 -23 -4 -19 -10 10 -17 39
-11 53 10 7 12 8 20 2 20 -5 0 -10 -4 -10 -10z"/>
<path d="M4650 3230 c0 -5 9 -10 20 -10 11 0 20 5 20 10 0 6 -9 10 -20 10 -11
0 -20 -4 -20 -10z"/>
<path d="M4765 3210 l-30 -20 38 0 c30 0 37 4 37 20 0 25 -7 25 -45 0z"/>
<path d="M2035 3210 c-4 -6 6 -10 22 -10 22 0 25 2 13 10 -19 12 -27 12 -35 0z"/>
<path d="M4020 3210 c-26 -5 -31 -8 -18 -14 9 -4 22 -21 28 -37 7 -16 19 -29
27 -29 13 0 13 3 3 16 -11 13 -10 16 8 20 22 6 36 30 26 45 -6 10 -22 10 -74
-1z"/>
<path d="M4890 3205 c0 -8 5 -15 10 -15 6 0 10 7 10 15 0 8 -4 15 -10 15 -5 0
-10 -7 -10 -15z"/>
<path d="M5908 3212 c-15 -6 -14 -8 7 -18 29 -14 59 0 35 16 -17 11 -19 11
-42 2z"/>
<path d="M2390 3190 c-9 -17 -8 -20 9 -20 11 0 21 6 24 13 3 9 7 9 18 0 8 -6
35 -11 59 -11 25 1 37 3 27 6 -15 3 -16 6 -5 20 11 14 10 15 -7 7 -25 -11 -64
-12 -92 -2 -17 6 -24 3 -33 -13z"/>
<path d="M4270 3202 c0 -5 6 -17 14 -27 13 -19 14 -18 13 8 -1 15 -8 27 -14
27 -7 0 -13 -4 -13 -8z"/>
<path d="M5658 3203 c6 -2 18 -2 25 0 6 3 1 5 -13 5 -14 0 -19 -2 -12 -5z"/>
<path d="M6010 3199 c13 -6 28 -15 32 -22 5 -8 8 -7 8 4 0 9 -10 19 -22 23
-35 9 -46 6 -18 -5z"/>
<path d="M2295 3189 c-12 -19 5 -23 22 -6 16 16 16 17 1 17 -9 0 -20 -5 -23
-11z"/>
<path d="M4610 3189 c0 -7 -8 -18 -17 -25 -11 -8 -13 -13 -6 -14 7 0 22 -10
33 -22 18 -19 22 -20 30 -8 12 19 13 40 1 40 -5 0 -11 9 -14 20 -5 21 -27 28
-27 9z"/>
<path d="M2080 3176 c0 -9 7 -16 16 -16 9 0 14 5 12 12 -6 18 -28 21 -28 4z"/>
<path d="M4332 3179 c2 -6 8 -10 13 -10 5 0 11 4 13 10 2 6 -4 11 -13 11 -9 0
-15 -5 -13 -11z"/>
<path d="M5000 3180 c0 -5 5 -10 10 -10 6 0 10 5 10 10 0 6 -4 10 -10 10 -5 0
-10 -4 -10 -10z"/>
<path d="M2016 3171 c-4 -5 -2 -12 3 -15 5 -4 12 -2 15 3 4 5 2 12 -3 15 -5 4
-12 2 -15 -3z"/>
<path d="M2180 3170 c-12 -8 -11 -10 8 -10 12 0 22 5 22 10 0 13 -11 13 -30 0z"/>
<path d="M3820 3171 c0 -6 5 -13 10 -16 6 -3 10 1 10 9 0 9 -4 16 -10 16 -5 0
-10 -4 -10 -9z"/>
<path d="M5910 3170 c0 -5 -9 -19 -20 -30 -19 -19 -19 -20 -2 -20 23 0 56 35
47 49 -8 14 -25 14 -25 1z"/>
<path d="M4530 3155 c0 -8 9 -15 20 -15 13 0 18 5 14 15 -4 8 -12 15 -20 15
-8 0 -14 -7 -14 -15z"/>
<path d="M5349 3153 c-12 -15 -12 -16 3 -10 9 3 22 -1 28 -9 15 -17 40 -19 40
-3 0 14 -30 38 -46 39 -6 0 -18 -8 -25 -17z"/>
<path d="M5605 3160 c-3 -5 -17 -10 -31 -10 -21 0 -24 -3 -18 -25 5 -20 3 -25
-14 -25 -11 0 -22 -7 -26 -15 -8 -21 30 -20 42 1 5 8 27 18 48 21 38 5 95 36
84 46 -12 11 -79 17 -85 7z"/>
<path d="M4347 3153 c-24 -23 33 -54 59 -32 8 6 28 6 55 0 24 -5 47 -8 51 -5
16 10 7 24 -16 24 -14 0 -37 5 -52 10 -18 7 -30 7 -39 0 -9 -8 -15 -8 -20 0
-7 11 -28 13 -38 3z"/>
<path d="M4890 3150 c-8 -5 -45 -10 -81 -10 -67 0 -108 -17 -95 -38 10 -16 32
-15 73 5 28 13 36 14 43 3 5 -9 19 -11 44 -6 30 6 36 11 36 31 0 28 0 28 -20
15z"/>
<path d="M5105 3150 c3 -5 8 -10 11 -10 2 0 4 5 4 10 0 6 -5 10 -11 10 -5 0
-7 -4 -4 -10z"/>
<path d="M5480 3134 c-13 -32 -12 -34 1 -34 12 0 38 29 39 41 0 4 -7 10 -15
13 -11 4 -19 -3 -25 -20z"/>
<path d="M6025 3140 c3 -5 10 -10 16 -10 5 0 9 5 9 10 0 6 -7 10 -16 10 -8 0
-12 -4 -9 -10z"/>
<path d="M3870 3131 c0 -5 7 -12 16 -15 14 -5 15 -4 4 9 -14 17 -20 19 -20 6z"/>
<path d="M4265 3130 c-3 -5 3 -10 14 -10 12 0 21 5 21 10 0 6 -6 10 -14 10 -8
0 -18 -4 -21 -10z"/>
<path d="M5163 3123 c-40 -20 -42 -33 -7 -33 24 0 53 23 54 43 0 10 -11 8 -47
-10z"/>
<path d="M5815 3120 c-8 -13 5 -13 25 0 13 8 13 10 -2 10 -9 0 -20 -4 -23 -10z"/>
<path d="M5982 3108 c6 -18 28 -21 28 -4 0 9 -7 16 -16 16 -9 0 -14 -5 -12
-12z"/>
<path d="M5227 3093 c-34 -18 -32 -23 6 -16 15 3 27 12 27 19 0 8 -1 14 -2 13
-2 -1 -16 -8 -31 -16z"/>
<path d="M6025 3100 c3 -5 8 -10 11 -10 2 0 4 5 4 10 0 6 -5 10 -11 10 -5 0
-7 -4 -4 -10z"/>
<path d="M5298 3083 c7 -3 16 -2 19 1 4 3 -2 6 -13 5 -11 0 -14 -3 -6 -6z"/>
<path d="M3903 3059 c-24 -9 -47 -36 -36 -42 14 -9 116 7 120 18 4 14 -61 33
-84 24z"/>
<path d="M2050 2760 c0 -5 5 -10 10 -10 6 0 10 5 10 10 0 6 -4 10 -10 10 -5 0
-10 -4 -10 -10z"/>
<path d="M50 2750 c0 -5 7 -10 15 -10 8 0 15 5 15 10 0 6 -7 10 -15 10 -8 0
-15 -4 -15 -10z"/>
<path d="M3321 2637 c-1 -27 -93 -114 -129 -122 -30 -6 -55 -25 -34 -25 26 0
83 34 128 77 42 39 50 52 43 68 -7 18 -8 18 -8 2z"/>
<path d="M3003 2483 c26 -2 67 -2 90 0 23 2 2 3 -48 3 -49 0 -68 -1 -42 -3z"/>
<path d="M2944 2416 c-17 -8 -41 -27 -53 -42 -20 -25 -22 -38 -19 -101 2 -53
9 -79 24 -99 30 -40 84 -65 145 -66 58 0 90 18 127 72 48 71 14 186 -68 228
-50 25 -110 28 -156 8z m94 -3 c-10 -2 -28 -2 -40 0 -13 2 -5 4 17 4 22 1 32
-1 23 -4z m-63 -13 c3 -5 0 -7 -8 -4 -8 3 -29 -7 -48 -22 l-34 -26 33 31 c34
33 47 37 57 21z m120 0 c3 -6 -1 -7 -9 -4 -18 7 -21 14 -7 14 6 0 13 -4 16
-10z m-95 -24 c0 -3 -4 -8 -10 -11 -5 -3 -10 -1 -10 4 0 6 5 11 10 11 6 0 10
-2 10 -4z m37 -2 c-3 -3 -12 -4 -19 -1 -8 3 -5 6 6 6 11 1 17 -2 13 -5z m63
-39 c0 -3 -9 0 -20 7 -11 7 -20 18 -20 25 0 8 8 5 20 -7 11 -11 20 -22 20 -25z
m-151 -6 c-11 -16 -25 -29 -30 -29 -5 0 0 10 11 22 11 12 18 28 16 35 -3 7 1
10 9 6 12 -4 11 -10 -6 -34z m-62 -21 c-3 -7 -5 -2 -5 12 0 14 2 19 5 13 2 -7
2 -19 0 -25z m187 6 c9 -3 16 -10 16 -15 0 -6 -8 -5 -19 1 -12 6 -22 6 -25 1
-3 -5 -15 -7 -26 -4 -14 4 -30 -3 -46 -18 -17 -16 -23 -18 -19 -7 12 31 83 56
119 42z m66 -14 c10 0 21 6 23 13 3 7 6 4 6 -6 1 -14 -5 -18 -26 -15 -14 2
-28 9 -29 16 -1 7 0 8 3 2 2 -5 13 -10 23 -10z m-40 -61 l35 -6 -42 -2 c-48
-1 -75 7 -67 21 4 5 11 5 19 -2 9 -8 11 -4 9 17 -4 27 -3 27 4 3 6 -18 17 -27
42 -31z m-150 7 c0 -2 -16 -6 -35 -8 -19 -2 -35 0 -35 4 0 4 16 8 35 8 19 0
35 -2 35 -4z m220 -27 c-12 -41 -24 -53 -14 -14 7 32 13 45 19 45 2 0 0 -14
-5 -31z m-180 -35 c0 -3 -7 -1 -15 6 -11 9 -15 9 -15 1 0 -7 -4 -9 -10 -6 -5
3 -10 11 -10 16 0 6 5 7 10 4 6 -3 10 -1 10 5 0 7 6 5 15 -4 8 -8 15 -18 15
-22z m40 15 c0 -5 4 -8 9 -4 5 3 12 1 16 -5 3 -5 -3 -10 -13 -10 -11 0 -22 7
-26 15 -3 8 -1 15 4 15 6 0 10 -5 10 -11z m54 -4 c3 -8 1 -15 -4 -15 -6 0 -10
7 -10 15 0 8 2 15 4 15 2 0 6 -7 10 -15z m56 -29 c0 -2 -8 -10 -17 -17 -16
-13 -17 -12 -4 4 13 16 21 21 21 13z m-142 -36 c22 -7 23 -8 6 -9 -11 -1 -29
6 -40 15 -10 8 -13 12 -6 9 8 -4 26 -11 40 -15z m79 -6 c-3 -3 -12 -4 -19 -1
-8 3 -5 6 6 6 11 1 17 -2 13 -5z"/>
<path d="M2060 2227 c8 -7 21 -19 28 -27 11 -13 11 -10 1 13 -7 15 -19 27 -28
27 -14 -1 -14 -2 -1 -13z"/>
<path d="M3858 2124 c-29 -32 -84 -91 -123 -130 -38 -39 -78 -83 -88 -98 l-19
-27 -18 21 c-16 18 -18 19 -24 4 -4 -9 -1 -23 5 -30 8 -10 5 -19 -14 -38 -14
-14 -28 -35 -32 -46 -3 -11 -11 -20 -16 -20 -5 0 -9 -6 -9 -13 0 -7 -11 -29
-25 -50 -14 -20 -21 -37 -15 -37 23 0 2 -25 -21 -26 -13 0 -23 -6 -21 -12 1
-7 -3 -12 -9 -12 -5 0 -7 -5 -4 -10 4 -6 10 -8 15 -5 4 3 13 -2 20 -10 10 -12
9 -16 -5 -21 -13 -5 -14 -9 -4 -15 10 -6 10 -11 1 -22 -7 -8 -13 -37 -14 -64
-2 -28 -7 -49 -11 -46 -4 3 -5 -6 -2 -19 3 -13 -1 -45 -10 -71 -9 -26 -13 -53
-9 -59 4 -7 3 -8 -4 -4 -7 4 -12 0 -12 -10 0 -10 3 -15 6 -11 4 3 15 -4 25
-16 18 -22 18 -22 19 25 0 26 -5 50 -11 53 -7 5 -5 13 6 25 9 10 23 45 30 77
22 93 50 184 61 191 5 4 10 24 11 45 3 56 31 124 56 131 32 8 73 -45 100 -131
14 -42 27 -71 31 -65 3 6 -10 57 -29 114 -19 56 -33 108 -31 115 3 7 1 15 -4
18 -6 4 -10 0 -11 -7 0 -7 -4 -4 -8 7 -6 14 -2 28 15 48 13 16 24 33 24 38 0
5 17 27 38 48 124 125 204 213 199 217 -3 4 -30 -20 -59 -52z"/>
<path d="M2160 2116 c0 -2 8 -10 18 -17 15 -13 16 -12 3 4 -13 16 -21 21 -21
13z"/>
<path d="M2011 2073 c-5 -10 -9 -22 -10 -28 -1 -5 -4 -25 -7 -44 -6 -29 -3
-38 17 -54 24 -19 24 -20 2 -13 -19 6 -23 4 -23 -14 0 -30 28 -36 53 -12 27
27 31 102 9 149 -18 37 -27 41 -41 16z m19 -62 c0 -5 -7 -11 -14 -14 -10 -4
-13 -1 -9 9 6 15 23 19 23 5z m0 -41 c0 -5 -2 -10 -4 -10 -3 0 -8 5 -11 10 -3
6 -1 10 4 10 6 0 11 -4 11 -10z"/>
<path d="M2245 2025 c27 -33 64 -76 82 -96 28 -29 33 -41 27 -62 -3 -15 -10
-24 -15 -21 -5 3 -9 -6 -9 -20 0 -13 -7 -57 -15 -96 -13 -63 -13 -74 0 -100 9
-17 15 -32 15 -35 -1 -28 1 -35 10 -30 9 6 15 -25 10 -50 -3 -19 18 9 23 30 3
14 5 10 5 -10 1 -16 5 -61 11 -100 6 -38 11 -79 12 -90 1 -16 2 -16 8 5 4 14
2 50 -3 80 -15 80 -13 303 2 308 15 5 16 58 1 67 -12 8 15 30 46 38 12 3 6 5
-16 6 -43 1 -49 15 -43 94 l5 52 -17 -33 c-19 -38 -12 -41 -123 63 l-65 60 49
-60z"/>
<path d="M3871 1993 c-45 -68 -38 -153 13 -153 40 0 58 32 57 101 -1 113 -20
127 -70 52z"/>
<path d="M2582 1923 c2 -14 9 -29 17 -31 9 -3 11 0 6 8 -4 7 -2 16 6 21 12 7
11 9 -1 9 -13 0 -13 1 0 10 12 8 10 10 -8 10 -19 0 -23 -5 -20 -27z"/>
<path d="M2710 1920 c0 -33 20 -37 33 -7 8 22 1 37 -19 37 -9 0 -14 -11 -14
-30z"/>
<path d="M2840 1925 c0 -14 0 -28 -1 -32 0 -4 4 -9 10 -11 7 -2 11 11 11 32 0
20 -4 36 -10 36 -5 0 -10 -11 -10 -25z"/>
<path d="M2956 1943 c-3 -3 -6 -17 -6 -29 0 -24 17 -41 28 -29 4 4 1 10 -5 12
-7 3 -13 11 -13 19 0 9 5 12 10 9 6 -3 10 -2 10 4 0 13 -15 22 -24 14z"/>
<path d="M3072 1908 c2 -17 9 -34 17 -36 10 -3 11 0 5 9 -12 19 -11 42 1 51 6
4 2 8 -8 8 -15 0 -18 -7 -15 -32z"/>
<path d="M3575 1930 c3 -5 8 -10 11 -10 2 0 4 5 4 10 0 6 -5 10 -11 10 -5 0
-7 -4 -4 -10z"/>
<path d="M3196 1903 c0 -16 4 -28 9 -28 5 0 9 12 9 28 1 15 -3 27 -9 27 -5 0
-10 -12 -9 -27z"/>
<path d="M3307 1912 c-10 -15 -1 -45 15 -48 10 -1 15 6 14 24 -1 25 -19 41
-29 24z"/>
<path d="M3426 1903 c-12 -13 -6 -50 9 -50 9 0 15 10 15 23 0 24 -13 38 -24
27z"/>
<path d="M2598 1853 c6 -2 18 -2 25 0 6 3 1 5 -13 5 -14 0 -19 -2 -12 -5z"/>
<path d="M2858 1843 c34 -2 88 -2 120 0 31 2 3 3 -63 3 -66 0 -92 -1 -57 -3z"/>
<path d="M3123 1833 c15 -2 39 -2 55 0 15 2 2 4 -28 4 -30 0 -43 -2 -27 -4z"/>
<path d="M2582 1708 c3 -120 4 -123 26 -126 17 -3 25 2 29 17 7 28 21 27 25
-1 2 -16 11 -24 30 -26 26 -3 26 -3 33 85 12 158 12 158 -12 161 -19 3 -22 -3
-28 -55 -8 -73 -12 -83 -20 -55 -8 25 -25 30 -25 6 0 -8 -5 -12 -11 -9 -6 4
-9 29 -8 57 3 47 -8 67 -34 68 -4 0 -6 -55 -5 -122z"/>
<path d="M3268 1823 c17 -2 47 -2 65 0 17 2 3 4 -33 4 -36 0 -50 -2 -32 -4z"/>
<path d="M2789 1801 c-22 -17 -24 -28 -27 -118 -4 -110 0 -120 60 -129 65 -11
96 43 97 174 1 78 -73 119 -130 73z m78 -112 c-6 -85 -17 -105 -48 -89 -14 8
-16 21 -12 77 6 89 8 93 39 93 l27 0 -6 -81z"/>
<path d="M2942 1703 c-16 -146 -16 -153 7 -153 22 0 31 19 31 66 0 24 5 34 15
34 8 0 15 -6 15 -12 0 -7 5 -30 11 -50 8 -31 14 -38 36 -38 19 0 24 4 19 16
-3 9 -9 34 -12 55 -5 31 -3 43 10 52 9 7 19 29 22 49 5 30 2 41 -19 62 -21 21
-36 26 -75 26 l-49 0 -11 -107z m99 57 c17 0 9 -49 -10 -60 -32 -17 -41 -12
-41 23 0 38 8 50 28 42 7 -3 18 -5 23 -5z"/>
<path d="M3121 1708 c-7 -51 -15 -108 -18 -126 l-5 -33 73 3 c61 2 74 6 77 21
3 14 -4 17 -43 17 l-46 0 7 78 c11 128 11 127 -12 130 -19 3 -22 -5 -33 -90z"/>
<path d="M3310 1762 c0 -16 -9 -64 -20 -107 -28 -108 -28 -106 23 -99 80 13
107 48 123 160 6 36 3 43 -17 58 -13 9 -43 16 -66 16 -41 0 -43 -2 -43 -28z
m79 -21 c13 -8 13 -17 1 -66 -13 -52 -42 -91 -61 -80 -5 4 10 87 27 143 4 14
14 15 33 3z"/>
<path d="M1956 1761 c-3 -5 1 -11 9 -15 8 -3 15 -1 15 4 0 13 -18 22 -24 11z"/>
<path d="M3906 1742 c-4 -10 -20 -28 -36 -40 -17 -13 -30 -30 -30 -40 0 -9 -7
-30 -15 -45 -13 -26 -13 -28 10 -39 20 -9 41 -8 94 5 38 10 76 17 84 17 20 0
17 83 -5 124 -12 23 -23 29 -56 32 -32 3 -42 0 -46 -14z m54 -116 c0 -2 -9 -6
-20 -9 -11 -3 -18 -1 -14 4 5 9 34 13 34 5z"/>
<path d="M1990 1735 c-15 -18 -10 -45 12 -59 14 -8 22 -6 39 10 17 18 19 25
10 43 -13 24 -43 28 -61 6z m50 -21 c0 -19 -28 -30 -42 -16 -8 8 -8 15 1 26
14 17 41 10 41 -10z"/>
<path d="M1940 1731 c0 -5 6 -12 13 -14 7 -3 4 -6 -6 -6 -10 -1 -16 -5 -12
-11 3 -5 12 -7 20 -3 20 7 19 43 0 43 -8 0 -15 -4 -15 -9z"/>
<path d="M1911 1714 c0 -11 3 -14 6 -6 3 7 2 16 -1 19 -3 4 -6 -2 -5 -13z"/>
<path d="M2071 1707 c-14 -35 -14 -47 -1 -47 6 0 10 8 10 18 0 14 4 12 20 -8
22 -29 25 -27 34 20 7 33 6 34 -8 16 -17 -21 -18 -21 -34 9 -10 19 -11 19 -21
-8z"/>
<path d="M2157 1693 c-14 -14 -6 -53 13 -63 23 -12 40 -6 40 16 0 17 -16 19
-23 2 -4 -10 -8 -10 -16 2 -13 18 -5 30 20 30 10 0 19 5 19 10 0 11 -43 14
-53 3z"/>
<path d="M1894 1649 c3 -13 5 -26 5 -28 1 -3 6 0 13 7 16 16 28 15 28 -3 0 -8
7 -15 15 -15 25 0 17 37 -9 44 -13 3 -31 9 -40 12 -13 5 -15 1 -12 -17z"/>
<path d="M1885 1577 c-21 -16 -14 -23 38 -32 41 -8 47 2 17 28 -24 21 -31 21
-55 4z"/>
<path d="M4005 1559 c-16 -4 -70 -19 -120 -33 -119 -34 -132 -34 -151 7 l-14
32 6 -50 c4 -27 7 -51 8 -52 1 -1 31 8 66 21 36 13 106 34 155 46 50 12 91 24
93 25 9 8 -17 11 -43 4z"/>
<path d="M2572 1548 c3 -7 21 -17 42 -21 l37 -9 -2 -67 c-3 -64 3 -91 21 -91
11 0 25 170 14 180 -5 4 -33 11 -62 14 -42 5 -53 4 -50 -6z"/>
<path d="M2707 1453 c-4 -48 -4 -89 -1 -93 3 -3 14 6 25 19 15 18 19 39 19 92
0 60 -2 69 -19 69 -16 0 -19 -11 -24 -87z"/>
<path d="M3287 1533 c-9 -8 -9 -106 -1 -167 9 -63 34 -63 34 0 0 27 4 43 10
39 6 -3 10 -14 10 -24 0 -22 26 -58 36 -49 4 5 2 26 -5 48 -9 31 -9 49 0 79
16 53 0 81 -45 81 -18 0 -36 -3 -39 -7z m57 -66 c-9 -25 -34 -21 -34 6 0 13 3
27 7 31 11 11 34 -19 27 -37z"/>
<path d="M2799 1488 c0 -24 -2 -52 -4 -63 -2 -11 3 -27 11 -36 32 -36 -23 -78
-81 -63 -30 7 -32 -6 -10 -60 15 -35 34 -48 36 -23 1 6 5 1 9 -13 6 -18 8 -20
9 -7 1 11 6 15 12 11 8 -4 9 3 4 24 -5 25 -1 35 20 55 25 22 28 33 32 121 5
93 5 96 -16 96 -18 0 -21 -6 -22 -42z"/>
<path d="M2860 1415 c0 -94 3 -115 15 -115 10 0 15 15 17 58 l3 57 27 -57 c42
-89 58 -79 60 37 0 52 1 101 2 107 1 7 -7 14 -16 16 -14 3 -17 -6 -20 -50 l-3
-53 -27 58 c-16 33 -33 57 -42 57 -14 0 -16 -18 -16 -115z"/>
<path d="M3166 1514 c-21 -20 -22 -161 -3 -188 19 -26 67 -24 89 4 15 19 17
33 12 94 -4 39 -11 79 -16 89 -11 22 -61 23 -82 1z m62 -103 c-2 -52 -6 -66
-20 -69 -13 -3 -18 9 -23 62 -8 73 5 107 32 85 10 -9 13 -31 11 -78z"/>
<path d="M3010 1506 c0 -7 9 -16 20 -19 18 -5 20 -14 20 -75 0 -66 -2 -71 -22
-74 -13 -2 -23 -10 -23 -18 0 -12 13 -15 60 -15 49 0 60 3 63 18 2 12 -3 17
-17 17 -19 0 -21 6 -21 75 0 68 2 75 20 75 11 0 20 7 20 15 0 12 -13 15 -60
15 -44 0 -60 -4 -60 -14z"/>
<path d="M3880 1475 c-63 -19 -121 -32 -129 -29 -11 4 -12 -5 -7 -43 4 -27 11
-75 16 -108 4 -33 18 -118 29 -190 12 -71 32 -200 45 -285 45 -280 138 -722
157 -744 4 -5 11 4 15 20 4 16 11 35 17 42 5 7 13 72 18 145 4 72 15 190 23
262 18 151 21 488 5 585 -6 36 -14 135 -17 220 l-7 155 -25 1 c-14 1 -77 -13
-140 -31z"/>
<path d="M1995 1463 c15 -16 224 -62 231 -51 3 5 4 11 2 13 -2 2 -52 11 -112
20 -60 9 -114 19 -120 22 -7 4 -8 3 -1 -4z"/>
<path d="M1848 1423 c-18 -46 -37 -145 -38 -193 0 -111 44 -167 155 -198 39
-11 96 -29 127 -41 107 -39 347 -19 432 36 30 20 67 34 100 38 50 7 52 8 80
61 32 61 29 82 -13 90 -28 6 -51 37 -51 69 0 22 -17 18 -56 -11 l-35 -27 -24
23 c-38 35 -30 17 26 -65 52 -75 58 -105 20 -105 -26 0 -36 17 -21 35 9 11 9
18 -3 30 -17 17 -37 20 -37 5 0 -5 -23 15 -51 45 -29 29 -60 56 -70 58 -24 6
-24 -2 -2 -19 28 -20 7 -28 -29 -11 -24 11 -34 23 -36 42 -2 29 -29 85 -40 85
-13 0 -32 -23 -32 -39 0 -8 12 -30 27 -50 16 -20 27 -40 25 -45 -2 -5 5 -5 15
-2 9 4 14 4 11 1 -4 -4 -3 -18 2 -31 10 -25 4 -54 -11 -54 -5 0 -12 18 -15 39
-6 39 -22 55 -99 98 -20 11 -23 29 -10 71 6 18 4 22 -15 22 -12 0 -87 16 -167
35 -80 19 -147 35 -149 35 -3 0 -9 -12 -16 -27z m786 -207 c6 -26 6 -27 -9
-12 -10 9 -14 24 -11 33 8 20 11 16 20 -21z m-288 -121 c4 -14 3 -29 0 -33 -9
-8 -26 18 -26 41 0 26 19 20 26 -8z m49 -75 c3 -5 1 -10 -4 -10 -6 0 -11 5
-11 10 0 6 2 10 4 10 3 0 8 -4 11 -10z"/>
<path d="M2575 1420 c3 -5 8 -10 11 -10 2 0 4 5 4 10 0 6 -5 10 -11 10 -5 0
-7 -4 -4 -10z"/>
<path d="M2644 1318 c-10 -16 7 -30 22 -17 8 6 14 15 14 19 0 9 -30 8 -36 -2z"/>
<path d="M3352 1273 c-7 -18 -11 -22 -11 -10 -1 25 -19 21 -24 -5 l-4 -23 -2
23 c-1 25 -11 28 -29 10 -26 -26 -14 -41 29 -35 46 6 54 12 64 45 9 32 -11 27
-23 -5z"/>
<path d="M3500 1270 c0 -5 5 -10 11 -10 5 0 7 5 4 10 -3 6 -8 10 -11 10 -2 0
-4 -4 -4 -10z"/>
<path d="M2819 1269 c-7 -44 -6 -59 5 -59 12 0 15 45 3 57 -4 3 -7 4 -8 2z"/>
<path d="M2960 1244 c-12 -31 -8 -39 16 -30 13 5 14 9 5 20 -9 11 -9 15 1 18
9 3 9 6 0 12 -8 5 -16 -3 -22 -20z"/>
<path d="M3059 1269 c-7 -44 -6 -59 5 -59 12 0 15 45 3 57 -4 3 -7 4 -8 2z"/>
<path d="M3096 1263 c-8 -8 -8 -53 0 -53 8 0 33 32 34 41 0 10 -27 19 -34 12z"/>
<path d="M3145 1259 c-4 -6 -1 -15 6 -20 10 -6 11 -9 2 -9 -7 0 -13 -4 -13 -8
0 -5 7 -9 15 -9 8 0 15 9 15 19 0 10 0 21 1 25 1 13 -19 15 -26 2z"/>
<path d="M3244 1255 c3 -8 1 -15 -4 -15 -6 0 -10 -4 -10 -10 0 -21 28 -9 32
15 4 17 1 25 -9 25 -9 0 -13 -6 -9 -15z"/>
<path d="M2862 1235 c2 -14 8 -26 13 -26 6 0 11 12 13 26 2 18 -1 25 -13 25
-12 0 -15 -7 -13 -25z m15 -7 c-3 -8 -6 -5 -6 6 -1 11 2 17 5 13 3 -3 4 -12 1
-19z"/>
<path d="M2907 1253 c-15 -15 -7 -43 13 -43 15 0 20 7 20 25 0 24 -18 34 -33
18z"/>
<path d="M3000 1235 c0 -18 5 -23 20 -22 13 1 20 8 20 22 0 14 -7 21 -20 22
-15 1 -20 -4 -20 -22z"/>
<path d="M3208 1183 c7 -3 16 -2 19 1 4 3 -2 6 -13 5 -11 0 -14 -3 -6 -6z"/>
<path d="M3288 1183 c7 -3 16 -2 19 1 4 3 -2 6 -13 5 -11 0 -14 -3 -6 -6z"/>
<path d="M2778 1173 c12 -2 30 -2 40 0 9 3 -1 5 -23 4 -22 0 -30 -2 -17 -4z"/>
<path d="M2878 1173 c7 -3 16 -2 19 1 4 3 -2 6 -13 5 -11 0 -14 -3 -6 -6z"/>
<path d="M2918 1173 c6 -2 18 -2 25 0 6 3 1 5 -13 5 -14 0 -19 -2 -12 -5z"/>
<path d="M3018 1173 c34 -2 88 -2 120 0 31 2 3 3 -63 3 -66 0 -92 -1 -57 -3z"/>
<path d="M2905 1038 c-43 -23 -65 -52 -65 -83 0 -17 5 -36 11 -42 7 -7 5 -21
-7 -45 -14 -31 -15 -39 -3 -63 25 -50 63 -70 129 -68 32 1 67 6 78 12 33 17
37 49 11 77 -18 19 -19 24 -7 24 35 0 37 61 4 87 l-24 19 29 11 c33 13 39 42
13 67 -18 19 -137 22 -169 4z"/>
<path d="M3380 1042 c0 -5 7 -15 15 -22 8 -7 15 -8 15 -2 0 5 -7 15 -15 22 -8
7 -15 8 -15 2z"/>
<path d="M3505 907 c-38 -66 -56 -107 -47 -107 9 0 86 149 80 155 -2 2 -17
-19 -33 -48z"/>
<path d="M3400 936 c0 -9 5 -16 10 -16 6 0 10 4 10 9 0 6 -4 13 -10 16 -5 3
-10 -1 -10 -9z"/>
<path d="M2287 912 c-3 -15 -3 -151 -1 -302 3 -151 2 -350 -3 -443 l-8 -167
285 2 285 3 5 110 c4 96 6 104 13 61 4 -27 7 -67 7 -90 0 -23 3 -51 6 -63 l6
-23 305 0 305 0 -4 65 c-2 36 -2 65 1 65 3 0 23 -17 44 -38 52 -49 44 -26 -10
31 l-42 45 -10 139 c-5 76 -19 191 -31 256 -20 113 -20 120 -4 163 9 24 14 47
11 50 -3 4 -9 -5 -13 -20 -7 -30 -24 -35 -24 -7 0 24 -16 36 -23 17 -7 -18
-167 -99 -242 -122 -81 -26 -255 -26 -340 0 -116 35 -374 177 -417 230 -10 11
-18 17 -18 13 0 -5 -17 5 -39 22 l-39 31 -5 -28z"/>
<path d="M3220 745 c-14 -8 -20 -14 -15 -14 6 0 21 6 35 14 14 8 21 14 15 14
-5 0 -21 -6 -35 -14z"/>
<path d="M3040 700 c0 -5 7 -10 15 -10 8 0 15 5 15 10 0 6 -7 10 -15 10 -8 0
-15 -4 -15 -10z"/>
<path d="M3005 690 c-3 -5 -2 -10 4 -10 5 0 13 5 16 10 3 6 2 10 -4 10 -5 0
-13 -4 -16 -10z"/>
<path d="M2965 680 c4 -6 11 -8 16 -5 14 9 11 15 -7 15 -8 0 -12 -5 -9 -10z"/>
<path d="M2898 673 c12 -2 30 -2 40 0 9 3 -1 5 -23 4 -22 0 -30 -2 -17 -4z"/>
<path d="M3632 570 c0 -19 2 -27 5 -17 2 9 2 25 0 35 -3 9 -5 1 -5 -18z"/>
<path d="M3626 357 c4 -79 44 -264 54 -253 10 9 -2 86 -12 80 -6 -4 -8 1 -4
14 4 11 0 38 -8 61 -8 24 -11 55 -7 74 9 46 2 94 -14 101 -11 4 -13 -10 -9
-77z"/>
<path d="M3671 275 c1 -19 18 -51 18 -35 0 8 -4 22 -9 30 -5 8 -9 11 -9 5z"/>
<path d="M3693 184 c-3 -8 -1 -20 6 -27 8 -8 11 -4 11 16 0 30 -7 35 -17 11z"/>
<path d="M3715 75 c-4 -36 -5 -68 -2 -71 3 -3 8 24 12 61 4 36 5 68 2 71 -3 3
-8 -24 -12 -61z"/>
<path d="M3680 76 c0 -8 5 -18 10 -21 6 -3 10 3 10 14 0 12 -4 21 -10 21 -5 0
-10 -6 -10 -14z"/>
</g>
</svg>
